<svg width="24" height="24" viewBox="0 0 24 24" fill="none" xmlns="http://www.w3.org/2000/svg">
<path fill-rule="evenodd" clip-rule="evenodd" d="M2 5C2 4.44772 2.44772 4 3 4H21C21.5523 4 22 4.44772 22 5C22 5.55228 21.5523 6 21 6H3C2.44772 6 2 5.55228 2 5ZM9.29289 10.2929C9.68342 9.90237 10.3166 9.90237 10.7071 10.2929L12 11.5858L13.2929 10.2929C13.6834 9.90237 14.3166 9.90237 14.7071 10.2929C15.0976 10.6834 15.0976 11.3166 14.7071 11.7071L12.7071 13.7071C12.3166 14.0976 11.6834 14.0976 11.2929 13.7071L9.29289 11.7071C8.90237 11.3166 8.90237 10.6834 9.29289 10.2929ZM2 12C2 11.4477 2.44772 11 3 11H6C6.55228 11 7 11.4477 7 12C7 12.5523 6.55228 13 6 13H3C2.44772 13 2 12.5523 2 12ZM17 12C17 11.4477 17.4477 11 18 11H21C21.5523 11 22 11.4477 22 12C22 12.5523 21.5523 13 21 13H18C17.4477 13 17 12.5523 17 12ZM2 19C2 18.4477 2.44772 18 3 18H21C21.5523 18 22 18.4477 22 19C22 19.5523 21.5523 20 21 20H3C2.44772 20 2 19.5523 2 19Z" fill="black"/>
</svg>
