<svg width="24" height="24" viewBox="0 0 24 24" fill="none" xmlns="http://www.w3.org/2000/svg">
<path fill-rule="evenodd" clip-rule="evenodd" d="M11.247 23.6578C11.3409 23.7653 11.4566 23.8513 11.5865 23.9103C11.7164 23.9693 11.8574 23.9998 12 23.9998C12.1426 23.9998 12.2836 23.9693 12.4135 23.9103C12.5434 23.8513 12.6591 23.7653 12.753 23.6578L15.953 19.999H20C20.7956 19.999 21.5587 19.683 22.1213 19.1204C22.6839 18.5578 23 17.7948 23 16.9992V2.99985C23 2.20424 22.6839 1.44122 22.1213 0.878637C21.5587 0.316055 20.7956 0 20 0L4 0C3.20435 0 2.44129 0.316055 1.87868 0.878637C1.31607 1.44122 1 2.20424 1 2.99985V16.9992C1 17.7948 1.31607 18.5578 1.87868 19.1204C2.44129 19.683 3.20435 19.999 4 19.999H8.046L11.247 23.6578ZM14.747 18.3411L12 21.481L9.253 18.3411C9.15914 18.2337 9.04339 18.1476 8.91351 18.0886C8.78364 18.0296 8.64264 17.9991 8.5 17.9991H4C3.73478 17.9991 3.48043 17.8938 3.29289 17.7062C3.10536 17.5187 3 17.2644 3 16.9992V2.99985C3 2.73465 3.10536 2.48031 3.29289 2.29278C3.48043 2.10525 3.73478 1.9999 4 1.9999H20C20.2652 1.9999 20.5196 2.10525 20.7071 2.29278C20.8946 2.48031 21 2.73465 21 2.99985V16.9992C21 17.2644 20.8946 17.5187 20.7071 17.7062C20.5196 17.8938 20.2652 17.9991 20 17.9991H15.5C15.3574 17.999 15.2165 18.0294 15.0866 18.0882C14.9567 18.147 14.841 18.2329 14.747 18.3401V18.3411ZM8 8.47559C8 7.66963 8.663 6.99966 9.5 6.99966C10.338 6.99966 11 7.66963 11 8.47559C11 8.74079 11.1054 8.99513 11.2929 9.18266C11.4804 9.37019 11.7348 9.47554 12 9.47554C12.2652 9.47554 12.5196 9.37019 12.7071 9.18266C12.8946 8.99513 13 8.74079 13 8.47559C13 7.66963 13.662 6.99966 14.5 6.99966C15.338 6.99966 16 7.66963 16 8.47559C16 9.46054 15.425 10.5555 14.464 11.6774C13.717 12.5494 12.817 13.3454 12 14.0083C11.183 13.3454 10.283 12.5494 9.536 11.6784C8.575 10.5545 8 9.45954 8 8.47459V8.47559ZM9.5 4.99976C10.476 4.99976 11.363 5.39874 12 6.04271C12.3267 5.71171 12.716 5.44903 13.1452 5.26997C13.5744 5.09091 14.0349 4.99906 14.5 4.99976C16.424 4.99976 18 6.54668 18 8.47559C18 10.1875 17.04 11.7454 15.983 12.9794C14.906 14.2363 13.59 15.3143 12.614 16.0742C12.4385 16.2108 12.2224 16.2849 12 16.2849C11.7776 16.2849 11.5615 16.2108 11.386 16.0742C10.41 15.3143 9.094 14.2363 8.016 12.9794C6.96 11.7454 6 10.1875 6 8.47559C6 6.54668 7.576 4.99976 9.5 4.99976Z" fill="#b5318d"/>
</svg>
