<svg width="159" height="122" viewBox="0 0 159 122" fill="none" xmlns="http://www.w3.org/2000/svg">
<path d="M53.12 36.592C57.216 36.592 61.3547 36.976 65.536 37.744C69.7173 38.512 73.0453 39.6213 75.52 41.072C76.288 41.4133 76.7573 41.7973 76.928 42.224C77.184 42.5653 77.3547 43.2053 77.44 44.144L78.848 58.48C78.848 58.736 78.6347 58.9067 78.208 58.992C77.7813 58.992 77.5253 58.864 77.44 58.608C75.5627 52.0373 72.064 47.216 66.944 44.144C61.9093 40.9867 55.6373 39.408 48.128 39.408C41.6427 39.408 35.968 40.8587 31.104 43.76C26.24 46.576 22.4853 50.5867 19.84 55.792C17.1947 60.9973 15.872 67.0133 15.872 73.84C15.872 81.776 17.4933 89.1147 20.736 95.856C24.064 102.597 28.5013 107.931 34.048 111.856C39.68 115.781 45.7387 117.744 52.224 117.744C58.368 117.744 63.7013 116.08 68.224 112.752C72.7467 109.339 76.2027 104.133 78.592 97.136C78.592 96.88 78.7627 96.752 79.104 96.752C79.36 96.752 79.5733 96.7947 79.744 96.88C80 96.9653 80.128 97.0933 80.128 97.264L78.336 111.728C78.1653 112.752 77.952 113.435 77.696 113.776C77.5253 114.032 77.056 114.331 76.288 114.672C68.608 117.915 60.5013 119.536 51.968 119.536C41.728 119.536 33.152 117.488 26.24 113.392C19.4133 109.211 14.3787 103.92 11.136 97.52C7.89333 91.12 6.272 84.3787 6.272 77.296C6.272 69.4453 8.448 62.4053 12.8 56.176C17.152 49.9467 22.912 45.1253 30.08 41.712C37.248 38.2987 44.928 36.592 53.12 36.592Z" fill="#ED4ECB" fill-opacity="0.81"/>
<path d="M87.928 89.144C87.864 89.176 87.808 89.192 87.76 89.192C87.472 89.192 87.192 89 86.92 88.616C86.664 88.216 86.536 87.68 86.536 87.008V80.912C86.536 79.936 86.392 79.224 86.104 78.776C85.832 78.328 85.392 78.104 84.784 78.104C84.048 78.104 83.504 78.336 83.152 78.8C82.816 79.248 82.552 79.84 82.36 80.576C82.28 80.848 82.168 81.072 82.024 81.248C81.896 81.408 81.696 81.488 81.424 81.488C81.168 81.488 80.96 81.416 80.8 81.272C80.64 81.112 80.56 80.92 80.56 80.696C80.56 80.296 80.84 79.848 81.4 79.352C81.976 78.856 82.672 78.432 83.488 78.08C84.304 77.728 85.04 77.552 85.696 77.552C86.384 77.552 86.936 77.776 87.352 78.224C87.768 78.656 87.976 79.312 87.976 80.192V86.192C87.976 87.392 88.368 87.992 89.152 87.992C89.472 87.992 89.864 87.888 90.328 87.68H90.376C90.44 87.68 90.48 87.72 90.496 87.8C90.528 87.864 90.512 87.912 90.448 87.944L87.928 89.144ZM82.528 89.168C81.968 89.168 81.496 89 81.112 88.664C80.728 88.328 80.536 87.944 80.536 87.512C80.536 86.904 80.736 86.416 81.136 86.048C81.536 85.68 82.28 85.296 83.368 84.896L86.8 83.648L86.848 83.936L83.872 85.088C83.28 85.312 82.864 85.568 82.624 85.856C82.384 86.144 82.264 86.488 82.264 86.888C82.264 87.272 82.392 87.608 82.648 87.896C82.92 88.168 83.232 88.304 83.584 88.304C83.968 88.304 84.392 88.184 84.856 87.944L87.016 86.84L87.064 87.152L84.952 88.328C84.392 88.632 83.928 88.848 83.56 88.976C83.192 89.104 82.848 89.168 82.528 89.168ZM97.9249 77.48C98.5329 77.48 99.1809 77.544 99.8689 77.672C100.573 77.784 101.141 77.952 101.573 78.176C101.685 78.224 101.757 78.272 101.789 78.32C101.821 78.368 101.845 78.456 101.861 78.584L102.101 81.056C102.101 81.104 102.053 81.136 101.957 81.152C101.877 81.168 101.829 81.144 101.813 81.08C101.525 79.976 100.997 79.16 100.229 78.632C99.4769 78.104 98.5409 77.84 97.4209 77.84C96.5889 77.84 95.8369 78.064 95.1649 78.512C94.4929 78.96 93.9649 79.576 93.5809 80.36C93.2129 81.128 93.0289 82 93.0289 82.976C93.0289 83.968 93.2209 84.928 93.6049 85.856C93.9889 86.768 94.5569 87.512 95.3089 88.088C96.0769 88.664 96.9969 88.952 98.0689 88.952C99.0449 88.952 99.8689 88.68 100.541 88.136C101.229 87.592 101.725 86.76 102.029 85.64C102.029 85.592 102.069 85.568 102.149 85.568C102.181 85.568 102.213 85.584 102.245 85.616C102.293 85.632 102.317 85.648 102.317 85.664L102.005 88.208C101.989 88.336 101.965 88.424 101.933 88.472C101.901 88.52 101.813 88.576 101.669 88.64C100.437 89.072 99.1569 89.288 97.8289 89.288C96.3089 89.288 95.0609 88.984 94.0849 88.376C93.1089 87.768 92.4049 87.008 91.9729 86.096C91.5409 85.184 91.3249 84.264 91.3249 83.336C91.3249 82.248 91.6129 81.256 92.1889 80.36C92.7649 79.464 93.5569 78.76 94.5649 78.248C95.5729 77.736 96.6929 77.48 97.9249 77.48ZM108.751 89.288C107.839 89.288 107.079 89.032 106.471 88.52C105.879 88.008 105.583 87.16 105.583 85.976V79.688C105.583 79.288 105.551 79.008 105.487 78.848C105.439 78.672 105.327 78.56 105.151 78.512C104.991 78.448 104.719 78.416 104.335 78.416C104.287 78.416 104.263 78.368 104.263 78.272C104.263 78.16 104.287 78.104 104.335 78.104C104.975 78.104 105.511 77.936 105.943 77.6C106.391 77.264 106.631 76.832 106.663 76.304C106.663 76.256 106.719 76.232 106.831 76.232C106.895 76.232 106.935 76.392 106.951 76.712C106.983 77.032 106.999 77.928 106.999 79.4C107.015 80.856 107.023 82.792 107.023 85.208C107.023 86.328 107.239 87.16 107.671 87.704C108.103 88.232 108.759 88.496 109.639 88.496C110.487 88.496 111.231 88.28 111.871 87.848L111.919 87.824C111.967 87.824 112.007 87.864 112.039 87.944C112.071 88.008 112.063 88.056 112.015 88.088C111.359 88.52 110.783 88.824 110.287 89C109.807 89.192 109.295 89.288 108.751 89.288ZM111.295 79.04C109.903 78.672 108.351 78.488 106.639 78.488V78.056C107.743 78.056 109.319 77.984 111.367 77.84C111.415 77.84 111.455 77.888 111.487 77.984C111.519 78.08 111.535 78.208 111.535 78.368C111.535 78.512 111.503 78.664 111.439 78.824C111.391 78.984 111.343 79.056 111.295 79.04ZM123.055 79.76C123.055 79.28 123.015 78.928 122.935 78.704C122.855 78.464 122.695 78.296 122.455 78.2C122.215 78.104 121.839 78.056 121.327 78.056C121.295 78.056 121.279 78.008 121.279 77.912C121.279 77.816 121.295 77.768 121.327 77.768L122.383 77.792C122.991 77.824 123.479 77.84 123.847 77.84C124.183 77.84 124.655 77.824 125.263 77.792L126.319 77.768C126.351 77.768 126.367 77.816 126.367 77.912C126.367 78.008 126.351 78.056 126.319 78.056C125.791 78.056 125.399 78.104 125.143 78.2C124.903 78.28 124.735 78.432 124.639 78.656C124.543 78.88 124.495 79.232 124.495 79.712V87.056C124.495 87.536 124.535 87.896 124.615 88.136C124.711 88.36 124.879 88.512 125.119 88.592C125.359 88.672 125.735 88.712 126.247 88.712C126.295 88.712 126.319 88.76 126.319 88.856C126.319 88.952 126.295 89 126.247 89L124.687 88.976L123.511 89C123.319 89 123.191 88.976 123.127 88.928C123.079 88.88 123.055 88.752 123.055 88.544V79.76ZM123.895 86.24C122.999 87.296 122.111 88.072 121.231 88.568C120.367 89.048 119.455 89.288 118.495 89.288C117.359 89.288 116.415 88.992 115.663 88.4C114.927 87.792 114.559 86.96 114.559 85.904V79.712C114.559 79.232 114.519 78.88 114.439 78.656C114.375 78.432 114.239 78.28 114.031 78.2C113.839 78.104 113.527 78.056 113.095 78.056C113.063 78.056 113.047 78.008 113.047 77.912C113.047 77.816 113.063 77.768 113.095 77.768L114.031 77.792C114.575 77.824 114.991 77.84 115.279 77.84C115.679 77.84 116.183 77.824 116.791 77.792L117.775 77.768C117.807 77.768 117.823 77.816 117.823 77.912C117.823 78.008 117.807 78.056 117.775 78.056C117.263 78.056 116.879 78.104 116.623 78.2C116.383 78.296 116.215 78.464 116.119 78.704C116.039 78.928 115.999 79.28 115.999 79.76V85.088C115.999 87.456 117.047 88.64 119.143 88.64C119.943 88.64 120.695 88.44 121.399 88.04C122.103 87.64 122.855 86.968 123.655 86.024L123.895 86.24ZM129.972 79.712C129.972 80.4 130.204 80.96 130.668 81.392C131.132 81.808 131.828 82.248 132.756 82.712C133.412 83.048 133.932 83.352 134.316 83.624C134.716 83.896 135.052 84.232 135.324 84.632C135.596 85.032 135.732 85.512 135.732 86.072C135.732 86.664 135.564 87.208 135.228 87.704C134.908 88.184 134.444 88.568 133.836 88.856C133.228 89.144 132.516 89.288 131.7 89.288C130.564 89.288 129.604 89.008 128.82 88.448C128.74 88.416 128.684 88.368 128.652 88.304C128.636 88.24 128.62 88.136 128.604 87.992L128.364 85.616C128.348 85.552 128.38 85.512 128.46 85.496C128.556 85.48 128.62 85.504 128.652 85.568C128.876 86.496 129.316 87.288 129.972 87.944C130.644 88.584 131.388 88.904 132.204 88.904C132.764 88.904 133.244 88.744 133.644 88.424C134.06 88.088 134.268 87.576 134.268 86.888C134.268 86.152 134.028 85.552 133.548 85.088C133.068 84.624 132.372 84.152 131.46 83.672C130.82 83.32 130.308 83.016 129.924 82.76C129.556 82.488 129.244 82.16 128.988 81.776C128.732 81.392 128.604 80.928 128.604 80.384C128.604 79.472 128.956 78.76 129.66 78.248C130.364 77.736 131.22 77.48 132.228 77.48C133.044 77.48 133.844 77.664 134.628 78.032C134.772 78.112 134.86 78.176 134.892 78.224C134.94 78.272 134.972 78.344 134.988 78.44L135.132 80.528C135.132 80.592 135.084 80.632 134.988 80.648C134.908 80.664 134.86 80.64 134.844 80.576C134.764 80.176 134.58 79.768 134.292 79.352C134.02 78.92 133.668 78.56 133.236 78.272C132.804 77.984 132.324 77.84 131.796 77.84C131.22 77.84 130.772 78.016 130.452 78.368C130.132 78.72 129.972 79.168 129.972 79.712Z" fill="#ED4ECB" fill-opacity="0.81"/>
<path d="M100.704 101.992C100.704 101.512 100.648 101.16 100.536 100.936C100.44 100.696 100.248 100.528 99.96 100.432C99.672 100.336 99.216 100.288 98.592 100.288C98.544 100.288 98.52 100.24 98.52 100.144C98.52 100.048 98.544 100 98.592 100L99.744 100.024C100.448 100.056 101.032 100.072 101.496 100.072C101.928 100.072 102.48 100.056 103.152 100.024L104.328 100C104.376 100 104.4 100.048 104.4 100.144C104.4 100.24 104.376 100.288 104.328 100.288C103.72 100.288 103.272 100.336 102.984 100.432C102.696 100.512 102.496 100.664 102.384 100.888C102.288 101.112 102.24 101.464 102.24 101.944V113.056C102.24 113.536 102.288 113.896 102.384 114.136C102.496 114.36 102.696 114.512 102.984 114.592C103.272 114.672 103.72 114.712 104.328 114.712C104.376 114.712 104.4 114.76 104.4 114.856C104.4 114.952 104.376 115 104.328 115C103.832 115 103.44 114.992 103.152 114.976L101.496 114.952L99.744 114.976C99.456 114.992 99.072 115 98.592 115C98.544 115 98.52 114.952 98.52 114.856C98.52 114.76 98.544 114.712 98.592 114.712C99.216 114.712 99.672 114.672 99.96 114.592C100.248 114.512 100.44 114.36 100.536 114.136C100.648 113.896 100.704 113.536 100.704 113.056V101.992ZM90.648 106.936H101.376V107.44H90.648V106.936ZM89.952 101.944C89.952 101.464 89.896 101.112 89.784 100.888C89.688 100.664 89.496 100.512 89.208 100.432C88.92 100.336 88.472 100.288 87.864 100.288C87.832 100.288 87.816 100.24 87.816 100.144C87.816 100.048 87.832 100 87.864 100L89.088 100.024C89.76 100.056 90.296 100.072 90.696 100.072C91.16 100.072 91.744 100.056 92.448 100.024L93.6 100C93.632 100 93.648 100.048 93.648 100.144C93.648 100.24 93.632 100.288 93.6 100.288C92.992 100.288 92.536 100.336 92.232 100.432C91.944 100.528 91.744 100.696 91.632 100.936C91.536 101.16 91.488 101.512 91.488 101.992V113.056C91.488 113.536 91.536 113.896 91.632 114.136C91.744 114.36 91.944 114.512 92.232 114.592C92.52 114.672 92.976 114.712 93.6 114.712C93.632 114.712 93.648 114.76 93.648 114.856C93.648 114.952 93.632 115 93.6 115C93.104 115 92.712 114.992 92.424 114.976L90.696 114.952L89.04 114.976C88.752 114.992 88.352 115 87.84 115C87.808 115 87.792 114.952 87.792 114.856C87.792 114.76 87.808 114.712 87.84 114.712C88.448 114.712 88.896 114.672 89.184 114.592C89.488 114.512 89.688 114.36 89.784 114.136C89.896 113.896 89.952 113.536 89.952 113.056V101.944ZM111.811 115.288C110.691 115.288 109.691 115.024 108.811 114.496C107.947 113.968 107.275 113.256 106.795 112.36C106.315 111.464 106.075 110.496 106.075 109.456C106.075 108.208 106.395 107.136 107.035 106.24C107.691 105.328 108.515 104.64 109.507 104.176C110.515 103.712 111.539 103.48 112.579 103.48C113.699 103.48 114.683 103.76 115.531 104.32C116.395 104.864 117.051 105.576 117.499 106.456C117.963 107.336 118.195 108.256 118.195 109.216C118.195 110.288 117.907 111.296 117.331 112.24C116.755 113.168 115.979 113.912 115.003 114.472C114.027 115.016 112.963 115.288 111.811 115.288ZM112.435 114.784C113.683 114.784 114.675 114.344 115.411 113.464C116.163 112.584 116.539 111.368 116.539 109.816C116.539 108.744 116.347 107.768 115.963 106.888C115.595 106.008 115.051 105.304 114.331 104.776C113.611 104.248 112.755 103.984 111.763 103.984C110.483 103.984 109.491 104.416 108.787 105.28C108.083 106.128 107.731 107.32 107.731 108.856C107.731 109.96 107.915 110.96 108.283 111.856C108.667 112.752 109.211 113.464 109.915 113.992C110.635 114.52 111.475 114.784 112.435 114.784ZM129.743 105.76C129.743 105.28 129.703 104.928 129.623 104.704C129.543 104.464 129.383 104.296 129.143 104.2C128.903 104.104 128.527 104.056 128.015 104.056C127.983 104.056 127.967 104.008 127.967 103.912C127.967 103.816 127.983 103.768 128.015 103.768L129.071 103.792C129.679 103.824 130.167 103.84 130.535 103.84C130.871 103.84 131.343 103.824 131.951 103.792L133.007 103.768C133.039 103.768 133.055 103.816 133.055 103.912C133.055 104.008 133.039 104.056 133.007 104.056C132.479 104.056 132.087 104.104 131.831 104.2C131.591 104.28 131.423 104.432 131.327 104.656C131.231 104.88 131.182 105.232 131.182 105.712V113.056C131.182 113.536 131.223 113.896 131.303 114.136C131.399 114.36 131.567 114.512 131.807 114.592C132.047 114.672 132.423 114.712 132.935 114.712C132.983 114.712 133.007 114.76 133.007 114.856C133.007 114.952 132.983 115 132.935 115L131.375 114.976L130.199 115C130.007 115 129.879 114.976 129.815 114.928C129.767 114.88 129.743 114.752 129.743 114.544V105.76ZM130.583 112.24C129.687 113.296 128.799 114.072 127.919 114.568C127.055 115.048 126.143 115.288 125.183 115.288C124.047 115.288 123.103 114.992 122.351 114.4C121.615 113.792 121.247 112.96 121.247 111.904V105.712C121.247 105.232 121.207 104.88 121.127 104.656C121.063 104.432 120.927 104.28 120.719 104.2C120.527 104.104 120.215 104.056 119.783 104.056C119.751 104.056 119.735 104.008 119.735 103.912C119.735 103.816 119.751 103.768 119.783 103.768L120.719 103.792C121.263 103.824 121.679 103.84 121.967 103.84C122.367 103.84 122.871 103.824 123.479 103.792L124.463 103.768C124.495 103.768 124.511 103.816 124.511 103.912C124.511 104.008 124.495 104.056 124.463 104.056C123.951 104.056 123.567 104.104 123.311 104.2C123.071 104.296 122.903 104.464 122.807 104.704C122.727 104.928 122.687 105.28 122.687 105.76V111.088C122.687 113.456 123.735 114.64 125.831 114.64C126.631 114.64 127.383 114.44 128.087 114.04C128.791 113.64 129.543 112.968 130.343 112.024L130.583 112.24ZM136.66 105.712C136.66 106.4 136.892 106.96 137.356 107.392C137.82 107.808 138.516 108.248 139.444 108.712C140.1 109.048 140.62 109.352 141.004 109.624C141.404 109.896 141.74 110.232 142.012 110.632C142.284 111.032 142.42 111.512 142.42 112.072C142.42 112.664 142.252 113.208 141.916 113.704C141.596 114.184 141.132 114.568 140.524 114.856C139.916 115.144 139.204 115.288 138.388 115.288C137.252 115.288 136.292 115.008 135.508 114.448C135.428 114.416 135.372 114.368 135.34 114.304C135.324 114.24 135.308 114.136 135.292 113.992L135.052 111.616C135.036 111.552 135.068 111.512 135.148 111.496C135.244 111.48 135.308 111.504 135.34 111.568C135.564 112.496 136.004 113.288 136.66 113.944C137.332 114.584 138.076 114.904 138.892 114.904C139.452 114.904 139.932 114.744 140.332 114.424C140.748 114.088 140.956 113.576 140.956 112.888C140.956 112.152 140.716 111.552 140.236 111.088C139.756 110.624 139.06 110.152 138.148 109.672C137.508 109.32 136.996 109.016 136.612 108.76C136.244 108.488 135.932 108.16 135.676 107.776C135.42 107.392 135.292 106.928 135.292 106.384C135.292 105.472 135.644 104.76 136.348 104.248C137.052 103.736 137.908 103.48 138.916 103.48C139.732 103.48 140.532 103.664 141.316 104.032C141.46 104.112 141.548 104.176 141.58 104.224C141.628 104.272 141.66 104.344 141.676 104.44L141.82 106.528C141.82 106.592 141.772 106.632 141.676 106.648C141.596 106.664 141.548 106.64 141.532 106.576C141.452 106.176 141.268 105.768 140.98 105.352C140.708 104.92 140.356 104.56 139.924 104.272C139.492 103.984 139.012 103.84 138.484 103.84C137.908 103.84 137.46 104.016 137.14 104.368C136.82 104.72 136.66 105.168 136.66 105.712ZM149.466 115.288C148.33 115.288 147.354 115.024 146.538 114.496C145.738 113.952 145.13 113.248 144.714 112.384C144.314 111.52 144.114 110.592 144.114 109.6C144.114 108.496 144.378 107.48 144.906 106.552C145.434 105.608 146.138 104.864 147.018 104.32C147.898 103.776 148.858 103.504 149.898 103.504C150.97 103.504 151.778 103.8 152.322 104.392C152.866 104.984 153.138 105.784 153.138 106.792C153.138 106.952 153.114 107.072 153.066 107.152C153.034 107.216 152.962 107.248 152.85 107.248H151.434C151.45 107.12 151.458 106.944 151.458 106.72C151.458 105.84 151.266 105.168 150.882 104.704C150.498 104.224 149.922 103.984 149.154 103.984C148.498 103.984 147.906 104.176 147.378 104.56C146.85 104.944 146.434 105.496 146.13 106.216C145.842 106.936 145.698 107.784 145.698 108.76C145.698 109.848 145.882 110.832 146.25 111.712C146.618 112.576 147.154 113.256 147.858 113.752C148.562 114.248 149.386 114.496 150.33 114.496C150.794 114.496 151.266 114.432 151.746 114.304C152.226 114.176 152.65 113.976 153.018 113.704H153.042C153.09 113.704 153.13 113.736 153.162 113.8C153.21 113.848 153.218 113.896 153.186 113.944C152.05 114.84 150.81 115.288 149.466 115.288ZM145.194 106.936L151.89 106.816V107.248L145.218 107.272L145.194 106.936Z" fill="#ED4ECB" fill-opacity="0.81"/>
</svg>
