<svg width="209" height="150" viewBox="0 0 209 150" fill="none" xmlns="http://www.w3.org/2000/svg">
<path d="M77.6 105.24C78.688 105.112 79.616 105.432 80.384 106.2C81.152 106.968 81.536 107.896 81.536 108.984C81.536 110.072 81.152 110.968 80.384 111.672C79.616 112.44 78.688 112.792 77.6 112.728C75.808 112.536 74.176 112.376 72.704 112.248C71.232 112.184 69.792 112.152 68.384 112.152C67.104 112.152 65.76 112.184 64.352 112.248C63.008 112.376 61.504 112.536 59.84 112.728C58.816 112.792 57.888 112.44 57.056 111.672C56.288 110.968 55.904 110.072 55.904 108.984C55.904 107.896 56.288 106.968 57.056 106.2C57.888 105.432 58.816 105.112 59.84 105.24C60.672 105.304 61.536 105.368 62.432 105.432C63.328 105.496 64.224 105.592 65.12 105.72C65.696 105.72 65.984 105.432 65.984 104.856V79.896C65.984 79.32 65.696 79.032 65.12 79.032H29.6C29.024 79.032 28.736 79.32 28.736 79.896V104.856C28.736 105.432 29.024 105.72 29.6 105.72C30.496 105.592 31.392 105.496 32.288 105.432C33.184 105.368 34.048 105.304 34.88 105.24C35.968 105.112 36.896 105.432 37.664 106.2C38.432 106.968 38.816 107.896 38.816 108.984C38.816 110.072 38.432 110.968 37.664 111.672C36.896 112.44 35.968 112.792 34.88 112.728C33.088 112.536 31.456 112.376 29.984 112.248C28.512 112.184 27.072 112.152 25.664 112.152C24.384 112.152 23.04 112.184 21.632 112.248C20.288 112.376 18.784 112.536 17.12 112.728C16.096 112.792 15.168 112.44 14.336 111.672C13.568 110.968 13.184 110.072 13.184 108.984C13.184 107.896 13.568 106.968 14.336 106.2C15.168 105.432 16.096 105.112 17.12 105.24C18.208 105.432 19.328 105.528 20.48 105.528H20.672C21.12 105.528 21.344 105.272 21.344 104.76V48.792C21.344 48.152 21.056 47.896 20.48 48.024C19.328 48.024 18.208 48.12 17.12 48.312C16.096 48.376 15.168 48.056 14.336 47.352C13.568 46.584 13.184 45.656 13.184 44.568C13.184 43.48 13.568 42.552 14.336 41.784C15.168 41.016 16.096 40.696 17.12 40.824C18.976 41.016 20.608 41.176 22.016 41.304C23.488 41.368 24.928 41.4 26.336 41.4C27.616 41.4 28.928 41.368 30.272 41.304C31.68 41.176 33.216 41.016 34.88 40.824C35.968 40.696 36.896 41.016 37.664 41.784C38.432 42.552 38.816 43.48 38.816 44.568C38.816 45.656 38.432 46.584 37.664 47.352C36.896 48.056 35.968 48.376 34.88 48.312C34.048 48.184 33.184 48.088 32.288 48.024C31.392 47.96 30.496 47.896 29.6 47.832C29.024 47.832 28.736 48.12 28.736 48.696V70.872C28.736 71.448 29.024 71.736 29.6 71.736H65.12C65.696 71.736 65.984 71.448 65.984 70.872V48.696C65.984 48.12 65.696 47.832 65.12 47.832C64.224 47.896 63.328 47.96 62.432 48.024C61.536 48.088 60.672 48.184 59.84 48.312C58.816 48.376 57.888 48.056 57.056 47.352C56.288 46.584 55.904 45.656 55.904 44.568C55.904 43.48 56.288 42.552 57.056 41.784C57.888 41.016 58.816 40.696 59.84 40.824C61.696 41.016 63.328 41.176 64.736 41.304C66.208 41.368 67.648 41.4 69.056 41.4C70.336 41.4 71.648 41.368 72.992 41.304C74.4 41.176 75.936 41.016 77.6 40.824C78.688 40.696 79.616 41.016 80.384 41.784C81.152 42.552 81.536 43.48 81.536 44.568C81.536 45.656 81.152 46.584 80.384 47.352C79.616 48.056 78.688 48.376 77.6 48.312C76.576 48.12 75.456 48.024 74.24 48.024H74.048C73.6 48.024 73.376 48.28 73.376 48.792V104.76C73.376 105.272 73.632 105.528 74.144 105.528C75.296 105.528 76.448 105.432 77.6 105.24Z" fill="#BE4C13"/>
<path d="M51.3731 8.56002C51.3192 9.18697 50.8769 9.79391 50.4512 10.1523C50.3456 10.2428 50.1651 10.1283 50.043 10.1128C50.0113 10.1087 49.9836 10.1112 49.9621 10.1255C49.7608 10.2574 49.814 10.4987 49.5915 10.608C49.5168 10.6426 49.1068 10.3391 49.0392 10.3796C48.6722 10.602 48.6237 10.9557 48.3548 11.2095C48.1864 11.3684 48.0252 11.521 47.8659 11.6754C47.3066 12.215 46.7973 12.7378 46.3066 13.2551C45.8396 13.747 45.3894 14.233 44.9325 14.7082C44.9138 14.7277 44.894 14.7468 44.8733 14.7655C44.5038 15.1014 43.8483 15.3292 43.7262 15.8261C43.7117 15.8874 44.0918 16.116 44.1151 16.1462C44.4674 16.613 43.7745 16.0472 43.6119 16.071C43.5289 16.0835 43.4524 16.0992 43.3793 16.1216C42.8915 16.2645 42.6346 16.6102 42.5599 16.9836C42.5258 17.1651 43.3495 17.5156 42.8451 17.3811C42.8107 17.3725 42.4451 17.0748 42.3771 17.086C42.224 17.1111 42.1801 17.3287 42.1023 17.38C42.0667 17.4025 42.039 17.4212 42.0163 17.4381C41.9382 17.4995 41.9141 17.5399 41.8409 17.6449C41.7065 17.8303 41.3614 17.9311 41.3147 18.1952C41.3058 18.2525 41.7466 18.4584 41.7685 18.5739C41.7904 18.6893 41.6322 18.8542 41.4957 18.8545C41.3593 18.8548 41.0617 18.6189 40.9821 18.5821C40.3119 18.2682 41.013 19.0439 41.0148 19.0862C41.032 19.8287 40.2628 19.934 39.9445 20.4013C39.8892 20.4829 39.8411 20.5713 39.7967 20.663C39.6476 20.9713 39.5399 21.3168 39.3428 21.5639C39.0365 21.9446 38.5855 22.1315 38.3485 22.542C38.323 22.5851 38.818 22.8656 38.7877 22.919C38.5402 23.3537 38.2308 23.742 37.7896 24.0326C37.6553 24.1212 37.5087 24.2006 37.3481 24.2695C37.2787 24.2987 36.9263 23.9386 36.8331 23.9502C36.27 24.0293 35.1154 23.942 36.7135 25.4188C36.4862 25.5836 36.2217 25.7924 35.7294 25.7221C35.4125 25.6769 35.0689 25.2328 35.1406 25.5222C35.1562 25.5871 35.5686 25.8274 35.5633 25.9034C35.5402 26.2231 35.2401 26.3651 35.2743 26.7254C35.2821 26.7994 35.6295 27.0443 35.6811 27.1028C35.8525 27.2999 35.7919 27.3397 35.6555 27.3176C35.4614 27.2862 35.1142 27.1294 35.0628 27.1248C34.4052 27.0721 34.4209 27.4105 34.2076 27.6656C34.1579 27.7246 34.6656 28.0005 34.6339 28.0699C34.4634 28.4252 34.1795 28.7114 33.748 28.8529C33.6509 28.8835 33.3151 28.5237 33.2492 28.523C32.9634 28.523 33.6625 29.1193 33.4018 29.1305C33.3478 29.1335 33.0327 28.861 32.9927 28.8379C32.3656 28.4751 33.1108 29.1719 33.1121 29.2066C33.1474 29.649 32.2183 29.1832 32.1092 29.491C32.1072 29.4967 32.1055 29.5026 32.104 29.5087C32.0952 29.5505 32.5614 29.8099 32.5113 29.9075C32.18 30.5594 31.5916 31.0619 30.819 31.3465C30.6994 31.3912 30.4416 31.0811 30.3993 31.0558C29.7368 30.6633 30.4837 31.3628 30.4908 31.415C30.5269 31.8094 29.697 31.4724 30.5166 32.3907C30.3287 32.5051 30.166 32.6404 30.0176 32.7865C29.3091 33.4839 28.9127 34.4447 27.5903 34.614C27.571 34.6173 27.2047 34.2718 27.1678 34.2799C26.7195 34.3729 27.36 34.8254 27.9329 35.6271C28.0765 35.8288 27.0791 35.2208 27.0043 35.1781C26.7288 35.021 26.199 34.4896 26.1403 34.4655C26.0348 34.424 26.0503 34.4729 26.1359 34.5754C26.4284 34.9262 27.5405 35.9055 27.4258 36.0396C27.4181 36.0423 27.092 35.7233 27.0453 35.7082C26.8991 35.6601 26.9979 35.8223 26.8414 35.7634C26.4797 35.6266 25.5435 34.8717 25.9388 35.4807C25.99 35.5597 27.0717 36.4549 26.8838 36.5663C26.8091 36.6093 26.5801 36.8991 26.444 36.9127C26.3082 36.9267 26.0217 36.57 26.0022 36.5623C25.3794 36.3569 25.2663 36.1136 24.5271 35.6094C23.7927 35.1047 25.3579 36.5096 25.4923 36.7098C25.626 36.9099 25.1318 36.7158 24.9745 36.6325C24.817 36.5495 24.6487 36.3092 24.5492 36.2732C23.8977 36.0388 25.2222 37.0807 25.3997 37.3786C25.6717 37.8379 25.2384 37.5972 24.8361 37.3799C24.6193 37.2631 24.4111 37.1535 24.3241 37.1662C24.2568 37.1761 24.542 37.3924 24.532 37.4502C24.4884 37.6764 24.0614 37.4166 24.2249 37.8852C24.2521 37.961 24.7893 38.7504 24.2215 38.3444C24.1401 38.2854 23.8985 37.9776 23.7793 37.9733C23.6009 37.9665 23.3865 38.0585 23.3839 38.2426C23.3821 38.3788 23.9089 38.7595 23.6826 38.7024C23.5818 38.6765 23.392 38.3385 23.2248 38.3119C23.0583 38.2849 22.8857 38.4747 22.824 38.5516C22.7629 38.6286 23.1374 38.9424 23.1545 38.9714C23.2497 39.1399 23.2746 39.44 23.2619 39.4512C23.1719 39.5497 23.0677 39.6312 22.9547 39.701C22.3502 40.0747 21.5009 40.1142 21.1468 40.7406C21.1132 40.7986 21.4875 41.1509 21.4859 41.1636C21.4666 41.4696 20.684 40.3417 20.2668 40.1036C20.9775 40.8626 20.785 40.7825 20.7467 40.9697C20.7288 41.0606 21.027 41.3339 21.0495 41.3691C21.3745 41.8986 20.7914 41.3604 20.6694 41.2527C20.2201 40.8572 20.6279 41.4341 20.3271 41.1701C20.2961 41.1429 20.2651 41.113 20.2342 41.0814C20.1646 41.0102 20.096 40.9302 20.0308 40.8525C19.9263 40.7278 19.8307 40.6091 19.755 40.5419C19.6969 40.4904 19.6505 40.4691 19.6206 40.4986C19.8368 40.8042 20.5639 41.4592 20.5849 41.6512C20.6638 42.3788 19.5679 42.3254 19.2624 42.4867C18.9567 42.6486 18.9198 42.7717 18.6838 42.799C18.2573 42.848 18.8289 43.307 18.8799 43.7004C18.9306 44.0941 17.846 42.6846 17.5716 42.4175C17.4883 42.3363 17.4519 42.3091 17.4367 42.307C17.402 42.3021 17.4792 42.4283 17.3631 42.3358C17.1964 42.2029 17.089 41.9525 16.969 41.9526C16.849 41.9527 17.1075 42.6274 17.3454 42.9494C17.8493 43.6315 18.516 44.2275 18.1308 44.1495C18.1083 44.1446 17.8354 43.7633 17.7646 43.7623C17.2128 43.7665 16.8707 44.0353 16.3468 44.0722C16.2743 44.0767 15.9704 43.6525 15.9243 43.6507C15.4426 43.6317 16.1141 44.2073 16.6141 45.063C15.7907 44.0634 15.1876 43.539 14.983 43.7098C14.9179 43.7637 14.9973 43.902 15.1143 44.0744C15.219 44.2287 15.3539 44.4105 15.4423 44.5836C15.4989 44.6939 15.157 44.4784 15.3183 44.6907C15.8457 45.3849 16.5708 46.0418 16.1116 45.932C16.0905 45.9262 15.8021 45.5459 15.7523 45.5518C15.4281 45.5884 16.0109 46.2868 15.8729 46.5588C15.7649 46.7722 15.1009 46.6259 14.8519 46.7319C13.8716 45.6562 13.9162 46.0675 14.5264 46.8698C14.3768 46.9519 14.2842 47.1151 14.0718 47.1236C13.999 47.1268 13.738 46.7941 13.7018 46.7656C13.608 46.6913 13.5465 46.6503 13.5093 46.6337C13.3222 46.5505 13.7446 47.0917 13.7419 47.1373C13.6727 47.6997 12.9302 47.3487 13.0451 48.1658C13.0503 48.1943 13.6317 49.0222 13.1041 48.4938C13.0693 48.4562 12.9031 48.0079 12.7306 48.0899C12.5523 48.1762 11.9677 47.9228 12.0152 48.4519C12.0217 48.5266 12.1331 48.8216 12.1312 48.9615C12.1301 49.0607 12.0723 49.0812 11.8844 48.8851C11.8234 48.8207 11.6828 48.5665 11.5761 48.4432C11.2374 48.0493 11.7461 48.9365 11.2093 48.2485C10.6721 47.5605 10.189 47.0954 10.2919 47.7316C10.2946 47.7502 10.6598 48.4755 10.5852 48.5047C10.4674 48.55 10.2309 48.4926 10.1212 48.5616C10.0688 48.595 10.3536 49.0113 10.3489 49.0247C10.1762 49.3729 9.84976 49.3107 9.49071 49.2818C9.38112 49.2734 9.26932 49.2674 9.15631 49.2777C9.06754 49.2846 9.18794 50 8.79006 49.599C8.35422 49.1602 7.33463 46.9048 7.26546 47.6111C7.23576 47.8947 8.54763 50.7459 7.51988 49.4575C7.41777 49.6675 7.25304 49.752 7.07083 49.8023C6.71409 49.9006 6.28368 49.8705 6.14663 50.3884C6.13671 50.4234 6.50517 51.2201 6.44919 51.239C6.36454 51.2658 6.11664 50.9376 6.04871 50.9464C5.75725 50.9754 5.7329 51.3987 5.49124 51.4856C5.40517 51.5176 5.22588 51.1862 5.11283 51.1828C5.10582 51.1826 5.09907 51.1837 5.09262 51.1862C4.98067 51.2299 5.21837 51.7382 4.94242 51.5979C4.73423 51.4897 3.99927 50.613 3.78357 50.6001C4.41202 51.5293 4.30864 51.5713 4.32225 51.9247C4.3257 51.9928 4.58408 52.288 4.59756 52.3365C4.65904 52.5398 4.4183 52.3145 4.49479 52.5299C4.51316 52.5817 4.73903 52.891 4.76731 52.9504C5.01885 53.4651 4.36605 52.879 4.2472 52.7815C3.80468 52.4033 4.06618 52.8316 3.8556 52.7127C3.64221 52.5964 3.57667 52.2892 3.4042 52.2533C3.21975 52.2167 3.07819 52.264 2.95749 52.3407C2.84323 52.4132 2.7516 52.5088 2.6579 52.5835C2.58315 52.6463 2.98007 52.9756 2.9773 52.9934C2.93002 53.2136 2.40152 52.9725 3.0575 53.7589C1.07102 52.026 3.15981 54.0178 2.60668 53.8436C2.56262 53.829 1.60842 53.0278 1.53562 52.8351C1.46513 52.6403 1.84482 52.8032 1.72837 52.514C1.69739 52.4491 1.00008 51.4949 0.973693 51.4222C0.741526 50.8759 2.04862 52.2028 2.12429 52.2714C2.95767 53.0001 2.2505 51.9439 2.24096 51.8365C2.2198 51.7014 2.2346 51.6088 2.26509 51.5377C2.3421 51.361 2.50687 51.3207 2.50074 51.0662C2.4957 50.835 1.75521 49.8669 1.87357 49.8219C2.27659 49.6679 3.3663 50.9785 2.79984 49.5729C2.68134 49.2723 1.85945 48.2199 2.68705 48.9223C2.74132 48.965 3.44276 49.6473 3.20281 49.0796C3.17277 49.0078 2.9584 48.6841 2.95681 48.6461C2.95102 48.3973 3.19299 48.6089 3.23202 48.408C3.24124 48.3614 3.24978 48.3107 3.2601 48.2606C3.29336 48.0948 3.34684 47.9351 3.50493 47.9566C3.62948 47.9723 4.10938 48.5271 4.23805 48.6563C4.60722 49.0292 4.29258 48.243 4.67423 48.7351C5.05471 49.2315 5.4109 50.1161 5.77912 50.3649C5.27445 49.4914 4.76511 48.5898 4.26304 47.7082C4.67227 47.5098 5.20801 47.5826 5.56235 47.336C5.60595 47.3045 5.29603 46.8561 5.33627 46.81C5.35482 46.7891 5.37563 46.7733 5.39826 46.7614C5.58463 46.6634 5.89126 46.8293 6.01725 46.6046C6.12561 46.4078 6.03337 45.8049 6.13457 45.5857C6.78776 46.5447 6.85239 46.0642 7.08036 46.0601C7.1602 46.0582 7.30364 46.3311 7.39629 46.3951C7.74215 46.6301 7.17418 45.778 7.14259 45.6123C7.05858 45.1743 7.45753 45.7821 7.82437 46.2642C8.04916 46.5604 8.26134 46.8095 8.33762 46.7422C8.34983 46.7329 7.89411 45.5778 7.87541 45.5003C7.75478 44.9947 8.10624 45.8619 8.2294 45.8969C8.4536 45.9609 8.70001 46.1588 8.68386 45.7514C8.6795 45.6305 8.40037 44.9051 8.79205 45.3625C8.84358 45.4222 9.04493 45.7758 9.06677 45.7905C9.44631 46.0263 8.79041 44.9288 8.65595 44.5038C8.52061 44.0794 9.12328 44.7429 9.29 44.9382C9.71812 45.4457 9.38191 45.2128 9.412 45.27C9.77013 45.9522 9.80841 45.7723 9.92564 45.7743C10.6124 46.8229 10.6954 46.6798 10.0449 45.7717C9.97406 45.6723 9.97335 45.8118 9.92564 45.7743C9.71096 45.3801 9.57788 45.1024 9.53163 44.9511C9.45145 44.6865 9.63393 44.8089 10.1256 45.3588C10.4887 45.7632 10.7824 46.3239 10.8494 45.9989C10.8781 45.8524 10.349 45.1695 10.2845 44.9269C10.1329 44.3765 10.7956 44.8849 10.8561 44.6739C10.8765 44.5985 10.5275 44.2729 10.5293 44.2103C10.5287 44.0461 10.8384 44.2493 10.8144 44.0287C10.8113 44.0087 10.4587 43.6604 10.4828 43.6307C10.5151 43.5881 10.5559 43.5538 10.6027 43.5243C10.8654 43.3422 11.229 43.2955 11.4914 43.0649C11.6456 42.929 11.7378 42.4768 11.9321 42.3755C12.2673 42.197 13.0798 42.4355 13.1947 42.1001C13.2185 42.0329 13.2005 41.954 13.1596 41.8679C13.0681 41.675 12.8618 41.446 12.7524 41.2317C12.4457 40.6309 13.4418 41.3126 13.5908 41.4229C13.5956 41.4266 13.5427 41.6285 13.7798 41.758C14.1696 42.1196 13.5908 41.4259 13.5908 41.4229C13.6878 41.4933 14.0208 41.3502 14.01 41.2341C14.0039 41.1707 13.6795 40.832 13.6822 40.8056C13.7529 40.1861 14.0222 39.7934 14.5151 39.6548C14.5275 39.6566 14.8623 40.06 14.8871 40.0593C15.1226 40.0593 15.0733 39.7968 14.9888 39.4941C14.946 39.3408 14.8941 39.1771 14.8658 39.0321C14.7816 38.6009 14.9957 38.5834 15.6844 39.1767C15.7344 38.9829 16.1737 39.1275 16.4348 39.2199C16.6959 39.3122 16.0383 38.5319 16.034 38.5089C15.8876 37.779 16.4325 38.0779 16.7792 37.8931C16.8831 37.839 16.989 37.6819 17.0707 37.5198C17.1195 37.4232 17.1597 37.3247 17.1862 37.2452C17.2411 37.0758 17.4695 37.1922 17.4727 36.984C17.4733 36.9561 17.1555 36.6309 17.1481 36.614C16.9015 36.105 17.5878 36.9812 17.7446 37.107C18.3146 37.5643 18.6276 37.7996 18.5503 37.4118C18.5333 37.3223 17.5585 36.0477 17.5566 35.9228C17.5569 35.762 17.913 36.213 17.9035 36.0336C17.903 36.0187 17.6629 35.7591 17.725 35.7234C18.01 35.5542 18.4088 35.4653 18.6284 35.2102C18.6592 35.1764 18.2325 34.8077 18.2705 34.7525C18.2738 34.7476 18.2772 34.7427 18.2807 34.7378C18.4584 34.4854 18.7108 34.2788 19.0988 34.2615C19.1973 34.2584 19.438 34.572 19.5305 34.6447C20.0931 35.082 19.4776 34.2502 19.4795 34.2209C19.5176 33.5141 20.4107 33.8353 20.5234 33.2125C20.5267 33.1936 20.5293 33.1738 20.5311 33.1531C20.5347 33.1122 19.8952 32.1916 20.6467 32.7686C20.6963 32.8074 21.4666 33.3965 21.0483 32.879C21.0219 32.8469 20.6181 32.5516 20.7289 32.5076C20.8401 32.463 20.7144 32.1118 21.2154 32.3727C21.3725 32.4558 22.1588 33.0216 21.6836 32.4044C21.6527 32.359 20.4975 31.0515 21.4392 31.7926C21.5943 31.9145 22.5332 32.7639 22.1577 32.2094C22.0842 32.1026 21.8341 31.9592 21.7566 31.7808C21.6358 31.5072 22.0054 31.5999 21.6843 31.109C21.6275 31.0223 21.0542 30.3753 21.6098 30.7197C21.6106 30.7203 21.6115 30.7208 21.6124 30.7214C21.7007 30.7752 22.0023 31.0728 22.074 31.0616C22.4165 31.0093 22.3783 30.6175 22.7713 30.6055C22.9099 30.6006 23.4005 31.0786 23.6032 31.1223C23.8058 31.166 24.0673 31.129 23.8942 30.8498C23.7208 30.5708 22.8168 29.954 22.8474 29.7821C22.9789 29.0374 23.8899 28.9416 24.3828 28.4909C24.4559 28.4242 24.1037 28.239 24.1896 28.1231C24.209 28.0968 24.2282 28.0686 24.2476 28.0389C24.5452 27.5826 24.8579 26.7644 25.7344 26.9158C26.4831 27.0441 26.5825 27.7246 26.9709 27.673C27.1576 27.6466 26.2645 26.7373 26.2539 26.6868C26.1401 26.1823 26.7171 26.3587 26.7637 26.0244C26.7731 25.9554 26.3353 25.6814 26.3477 25.6263C26.3861 25.4353 26.6787 25.4352 26.7489 25.2791C26.7534 25.2687 26.7504 25.2548 26.7422 25.2385C26.6948 25.1442 26.4735 24.9707 26.5299 24.9411C26.6846 24.855 26.9032 24.8439 27.2906 24.9456C27.3259 24.9548 27.648 25.3338 27.7374 25.2495C27.881 25.1124 28.3172 25.1434 28.1619 24.7345C28.1147 24.6122 27.4103 24.0591 27.9864 24.3261C28.1068 24.3818 28.9314 25.0732 28.3017 24.3695C28.1977 24.2518 27.3801 23.2615 28.1028 23.6476C28.2931 23.7492 29.0462 24.214 28.9863 24.0653C28.9755 24.0431 28.5681 23.7836 28.5718 23.7021C28.5913 23.4201 28.7822 23.2561 28.8094 22.9729C28.8158 22.8967 28.3624 22.67 28.3845 22.5664C28.4276 22.3614 28.5943 22.2088 28.7885 22.0978C28.8646 22.0543 28.945 22.0171 29.0238 21.9859C29.1276 21.9455 29.4167 22.2468 29.4566 22.2684C30.1058 22.6202 29.3601 21.973 29.3364 21.9091C29.2 21.519 29.6746 21.658 29.7037 21.4152C29.7126 21.349 29.312 21.1003 29.2855 21.0658C29.03 20.7243 29.6514 21.3019 29.7715 21.2967C30.1102 21.2837 30.2228 21.0697 30.3033 20.8606C30.3323 20.7834 29.842 20.5301 29.873 20.4647C30.048 20.0715 30.3479 19.7522 30.8322 19.5981C30.9242 19.5697 31.2343 19.8563 31.3212 19.8997C31.9284 20.2047 31.2856 19.5343 31.237 19.453C31.1633 19.3293 31.1516 19.2651 31.17 19.2285C31.2069 19.155 31.365 19.192 31.3863 19.0838C31.5371 18.2879 32.2596 17.6965 32.7805 17.2166C33.0897 16.9306 33.4082 16.7026 33.7017 16.4649C34.0507 16.1825 34.3637 15.8871 34.5786 15.4683C34.6041 15.4197 34.1108 15.1532 34.1267 15.1073C34.3542 14.5294 34.8561 14.1684 35.0567 13.5679C35.0739 13.5193 34.5914 13.2907 34.604 13.2031C34.624 13.0431 34.7337 12.9001 34.9189 12.8344C34.9454 12.8233 34.9735 12.8135 35.0029 12.8053C35.1225 12.7709 35.4339 13.1241 35.5464 13.0848C35.8116 12.9903 35.9781 12.8096 36.0421 12.5651C36.0679 12.4614 35.535 12.2825 35.6039 12.1704C35.8388 11.7783 36.0453 11.4188 36.3363 11.1225C36.6076 10.8469 36.9502 10.6316 37.4407 10.5282C37.5106 10.5131 38.4317 11.1153 38.3246 10.9026C38.0812 10.7184 37.7888 10.5101 37.5256 10.3175C37.6215 10.1249 37.731 9.94865 37.8522 9.78027C38.2224 9.26581 38.6893 8.84428 39.1002 8.40047C39.2467 8.24226 39.3858 8.08151 39.5102 7.91364C39.5347 7.88043 39.0081 7.62153 39.0525 7.55627C39.2507 7.26365 39.347 6.93323 39.7083 6.76472C39.8155 6.71436 39.946 6.67775 40.1098 6.65954C40.18 6.65139 41.0549 7.18611 40.9867 6.99409C40.9745 6.95911 40.951 6.7234 40.78 6.57256C40.7537 6.55071 40.3195 6.3473 40.3359 6.28891C40.4154 6.02833 40.5837 5.8231 40.8376 5.67761C40.9092 5.63623 40.9873 5.59985 41.0721 5.56826C41.136 5.5442 41.5779 5.80293 41.6279 5.78649C41.9832 5.65812 41.7173 5.2816 42.2165 5.24966C42.5552 5.21898 43.3754 5.54291 44.2309 5.7125C44.3522 5.73502 44.403 5.63232 44.8895 5.76404C46.115 6.0913 47.4275 6.55142 48.7349 6.89643C49.0174 6.97029 48.787 6.62626 49.4225 6.96818C49.4655 6.99127 49.6338 7.25095 49.8464 7.37055C49.9936 7.45371 50.5042 7.53756 50.6836 7.67357C50.8617 7.81266 50.4268 7.76283 50.6242 7.95712C50.8227 8.15519 51.3948 8.28869 51.3731 8.56002ZM17.6054 39.6287C18.0234 39.9137 16.8524 38.5537 17.0341 38.9656C17.0443 38.9871 17.5847 39.6149 17.6054 39.6287ZM5.86546 48.7674C6.40044 49.3749 5.93656 48.3014 5.53315 47.8262C5.12768 47.3531 5.70167 48.5842 5.86546 48.7674ZM4.60948 50.1789C5.10914 50.6026 3.80263 48.4185 3.87738 48.9781C3.88118 49.0101 4.58002 50.1546 4.60948 50.1789ZM44.3113 6.23697C44.3343 6.24395 44.3867 6.16947 44.365 6.15952C43.8448 5.92336 43.7449 6.06037 44.3113 6.23697ZM3.48574 51.7151C3.74338 51.951 3.65001 51.5249 3.3311 51.2288C3.07091 50.9929 3.16057 51.4247 3.48574 51.7151ZM23.6927 36.5589C23.7133 36.5762 23.7817 36.5404 23.6722 36.4361C23.3195 36.1005 23.3476 36.2686 23.6927 36.5589ZM1.32167 53.9181C1.69942 53.5661 3.44522 54.7675 3.02435 54.9127C2.94408 54.9464 2.59059 54.3777 2.38334 54.3359C1.98725 54.2843 2.99293 55.1457 2.31555 54.886C2.18265 54.8504 1.28963 53.9434 1.31977 53.9157C1.3204 53.9165 1.32104 53.9173 1.32167 53.9181ZM19.0826 41.2002C19.1002 41.2163 19.1916 41.1659 19.1779 41.1466C18.843 40.6825 18.6591 40.7834 19.0826 41.2002ZM27.3924 34.0876C27.4347 34.116 27.6241 33.9645 27.5934 33.9285C26.9604 33.2339 26.5771 33.5364 27.3924 34.0876ZM14.8226 46.706C15.1298 47.2019 15.0808 47.3386 14.5273 46.87C14.6335 46.824 14.7181 46.7539 14.8226 46.706Z" fill="#D81212"/>
<path d="M48.4418 3.28167C48.8387 3.37564 49.2084 3.69019 49.4734 4.04027C49.5554 4.14809 49.6282 4.25946 49.6901 4.36849C49.7727 4.51316 49.5274 4.72962 49.5741 4.84029C49.6637 5.05544 49.9045 5.03802 49.9715 5.2722C49.9923 5.35071 49.6271 5.70652 49.6548 5.77896C49.7714 6.08114 49.9977 6.21175 50.1914 6.39779C50.2494 6.45349 50.3039 6.51381 50.351 6.58475C50.6666 7.06057 50.9758 7.51211 51.2813 7.95226C51.6321 8.45794 51.9778 8.94854 52.3143 9.44119C52.6184 9.88649 52.9149 10.3336 53.1964 10.7933C53.2228 10.8362 53.2471 10.882 53.2699 10.93C53.4912 11.3974 53.5721 12.0947 54.003 12.3833C54.0585 12.4195 54.3962 12.1319 54.4327 12.1202C54.5652 12.0791 54.6239 12.0737 54.636 12.0916C54.6651 12.1351 54.218 12.4433 54.1854 12.5521C54.0018 13.0927 54.2156 13.4137 54.5869 13.5688C54.5987 13.5735 54.6128 13.5738 54.6286 13.5705C54.8213 13.5302 55.2697 12.9602 55.0269 13.3692C55.0096 13.3996 54.6388 13.6903 54.6304 13.755C54.6125 13.9018 54.8009 13.9779 54.8269 14.0578C54.8763 14.2148 54.8966 14.2284 54.9923 14.3318C55.1001 14.453 55.1202 14.7079 55.2634 14.8255C55.2894 14.8469 55.319 14.8633 55.3539 14.8737C55.4032 14.887 55.6894 14.4955 55.797 14.484C55.9043 14.4726 56.014 14.6292 55.9853 14.7563C55.9563 14.8834 55.6819 15.1453 55.632 15.2172C55.2122 15.825 56.0598 15.2227 56.0961 15.221C56.3298 15.2308 56.4778 15.3229 56.5892 15.4542C56.7994 15.7019 56.8806 16.0913 57.1399 16.3021C57.262 16.4007 57.4088 16.4784 57.5576 16.5518C57.7756 16.6594 57.9992 16.759 58.1646 16.9088C58.3697 17.0961 58.5026 17.3367 58.6648 17.5486C58.7631 17.6775 58.874 17.797 59.0171 17.8855C59.0569 17.9109 59.3582 17.4286 59.4075 17.4586C59.6885 17.6297 59.9518 17.8333 60.1727 18.0906C60.1727 18.0906 60.1727 18.0906 60.1727 18.0906C60.3588 18.308 60.5148 18.5641 60.6296 18.8736C60.6544 18.9415 60.2895 19.2879 60.2961 19.3793C60.3432 19.9302 60.218 21.0696 61.7078 19.4849C61.8554 19.7026 62.0434 19.9544 61.9671 20.4264C61.9661 20.4326 61.965 20.4388 61.9639 20.445C61.9099 20.7567 61.4691 21.1014 61.7518 21.0264C61.8152 21.0099 62.0605 20.6009 62.1338 20.6047C62.442 20.6213 62.5707 20.9128 62.9199 20.8704C62.9916 20.8609 63.2374 20.5141 63.2952 20.462C63.7671 20.0424 63.31 20.9811 63.3004 21.0672C63.2343 21.7136 63.5633 21.6888 63.8062 21.8895C63.8624 21.9363 64.1377 21.4291 64.2042 21.4577C64.3399 21.5194 64.4646 21.5989 64.574 21.6987C64.7388 21.849 64.8687 22.0452 64.9484 22.2959C64.9771 22.3897 64.6263 22.7339 64.625 22.7987C64.6232 23.0794 65.2052 22.3684 65.214 22.6234C65.2166 22.6762 64.9512 22.9972 64.9286 23.0374C64.5745 23.6687 65.2528 22.9071 65.2861 22.9041C65.7215 22.8479 65.2447 23.8169 65.5782 23.8793C65.6187 23.8859 65.8692 23.4156 65.9637 23.4599C66.1702 23.5554 66.3615 23.6782 66.5356 23.8261C66.8937 24.1303 67.1787 24.5408 67.3728 25.0392C67.4181 25.1537 67.1216 25.4261 67.0978 25.4691C66.7286 26.1441 67.3946 25.3674 67.4449 25.357C67.8263 25.2962 67.5173 26.1333 68.3901 25.2673C68.487 25.4163 68.598 25.5462 68.7177 25.6644C69.4029 26.3407 70.3701 26.6284 70.6227 27.8815C70.628 27.9082 70.6331 27.9353 70.6378 27.9628C70.6419 27.9815 70.3228 28.3708 70.3323 28.4064C70.4436 28.8391 70.8537 28.1708 71.6045 27.537C71.793 27.3779 71.2504 28.4109 71.2128 28.4883C71.0737 28.7728 70.5832 29.3404 70.5627 29.4003C70.4084 29.875 71.8534 27.8676 72.0239 27.992C72.0268 27.9992 71.7348 28.3496 71.7222 28.3965C71.6824 28.5437 71.8336 28.4303 71.7843 28.5885C71.669 28.9537 70.9932 29.9485 71.5592 29.4964C71.6322 29.4374 72.433 28.2848 72.5457 28.4498C72.59 28.5166 72.8725 28.6939 72.8941 28.8225C72.9157 28.9509 72.5968 29.2777 72.5906 29.2974C72.4401 29.9283 72.2168 30.0719 71.7956 30.8605C71.3764 31.6464 72.5906 29.9289 72.7707 29.7698C72.7739 29.767 72.777 29.7644 72.78 29.7619C72.9444 29.6288 72.804 30.1186 72.7412 30.2808C72.6768 30.4459 72.4626 30.6456 72.4381 30.7476C72.2838 31.4176 73.1441 29.9694 73.4092 29.7486C74.0313 29.2214 73.2519 30.5797 73.3211 30.8138C73.3388 30.8763 73.5083 30.5616 73.5638 30.5596C73.7797 30.5545 73.5936 31.0169 74.0112 30.7606C74.0801 30.7195 74.7347 30.0297 74.4396 30.6598C74.3972 30.7507 74.1463 31.0507 74.1615 31.1652C74.184 31.3371 74.3088 31.5208 74.4824 31.4784C74.6102 31.4468 74.8724 30.8536 74.8585 31.0816C74.8525 31.1835 74.5707 31.4475 74.5768 31.6129C74.5814 31.7336 74.6954 31.8281 74.7901 31.8852C74.8252 31.9064 74.8576 31.9225 74.8806 31.9329C74.9655 31.9709 75.182 31.533 75.2058 31.5094C75.3437 31.3748 75.615 31.2684 75.6274 31.2767C76.3078 31.6311 76.5118 32.7029 77.3118 32.8431C77.3739 32.8544 77.5906 32.3885 77.6026 32.3857C77.8833 32.2979 77.083 33.3999 76.9825 33.871C76.9822 33.8725 76.9819 33.874 76.9816 33.8755C76.9938 33.8526 77.0057 33.8303 77.0173 33.8087C77.0877 33.6778 77.1469 33.5719 77.1973 33.4865C77.4703 33.0232 77.4847 33.1583 77.634 33.1337C77.7217 33.1185 77.8832 32.7478 77.9087 32.7148C78.2929 32.2286 77.9742 32.9543 77.9132 33.1052C77.6879 33.6593 78.0897 33.0786 77.9406 33.4496C77.7937 33.8185 77.4193 34.2803 77.5468 34.3409C77.7581 34.0322 78.131 33.1282 78.2979 33.0393C78.9235 32.7014 79.2142 33.7137 79.4662 33.9292C79.7137 34.1434 79.8364 34.1274 79.9426 34.3302C79.9547 34.3532 79.9669 34.372 79.9792 34.387C80.1626 34.6102 80.3649 33.9819 80.6733 33.7879C81.002 33.5803 80.1398 35.1351 80.0005 35.4917C79.8616 35.8483 80.0618 35.5089 80.0044 35.714C79.9473 35.9191 79.7616 36.1178 79.8071 36.227C79.8535 36.3366 80.363 35.8275 80.5606 35.4794C80.9804 34.7427 81.264 33.8956 81.3345 34.2733C81.3384 34.2956 81.1018 34.7002 81.127 34.7641C81.3345 35.2583 81.7029 35.4511 81.9393 35.9041C81.9717 35.9671 81.7156 36.4215 81.7322 36.4637C81.9066 36.904 82.1507 36.0545 82.7064 35.236C82.4557 35.7643 82.272 36.2101 82.1681 36.5506C82.0418 36.9641 82.0335 37.2224 82.162 37.2823C82.3026 37.3482 82.501 36.8181 82.7485 36.4906C82.8227 36.3917 82.7709 36.7914 82.8927 36.5542C83.2905 35.7787 83.5768 34.8438 83.6623 35.3C83.6656 35.3214 83.4485 35.7462 83.4735 35.7879C83.6353 36.0598 84.0119 35.2319 84.3026 35.232C84.5306 35.2321 84.6735 35.8866 84.8689 36.0599C84.3314 37.4124 84.6737 37.1884 85.1222 36.2859C85.192 36.3359 85.2746 36.362 85.3509 36.4018C85.4202 36.438 85.4842 36.4855 85.5289 36.573C85.5617 36.6358 85.3805 37.0179 85.3707 37.0628C85.216 37.7677 85.6246 36.8782 85.6696 36.8542C86.1445 36.6342 86.1802 37.4344 86.7555 36.8712C86.7763 36.8509 87.1307 35.904 86.9736 36.6312C86.9628 36.6814 86.7007 37.0768 86.8453 37.1653C86.9879 37.2533 87.1138 37.8701 87.483 37.5001C87.5728 37.4114 87.965 36.6774 87.8718 37.322C87.859 37.4094 87.7523 37.6795 87.7227 37.8397C87.6457 38.2625 87.8768 37.6782 87.8497 37.9476C87.8444 38.0036 87.8278 38.0965 87.795 38.2429C87.6058 39.0945 87.5574 39.7636 87.9676 39.2734C87.9797 39.2593 88.2995 38.5133 88.3672 38.5512C88.4729 38.6116 88.5748 38.8287 88.6923 38.8672C88.749 38.8854 88.8901 38.4012 88.903 38.3963C89.225 38.3157 89.3808 38.525 89.5449 38.7732C89.6262 38.8958 89.7097 39.028 89.8173 39.1406C89.8765 39.2037 90.3443 38.6532 90.2819 39.2132C90.213 39.8261 89.1211 42.0468 89.6963 41.6466C89.9259 41.4883 91.2765 38.7068 90.9482 40.2346C90.9457 40.2464 90.9431 40.2585 90.9403 40.2708C91.591 40.1022 91.7508 41.0628 92.4713 40.7242C92.5037 40.7094 92.8871 39.9201 92.9351 39.951C92.9691 39.9737 92.9641 40.0756 92.9547 40.1813C92.9444 40.298 92.9288 40.4195 92.9536 40.4439C93.1495 40.6482 93.4867 40.3983 93.6968 40.5287C93.7775 40.5774 93.6095 40.9665 93.7078 41.0249C93.8072 41.083 94.0521 40.5785 94.1102 40.8798C94.1528 41.1089 93.9221 42.2287 94.0395 42.4031C94.2632 41.6847 94.3792 41.4722 94.5102 41.34C94.5744 41.2751 94.6424 41.2296 94.7277 41.1528C94.7774 41.1074 94.8494 40.7219 94.8783 40.681C94.9969 40.5058 94.968 40.8338 95.0876 40.6396C95.1163 40.593 95.2188 40.2239 95.2476 40.1648C95.4928 39.6475 95.4318 40.5219 95.4273 40.6754C95.3997 41.2561 95.5732 40.7857 95.606 41.0241C95.6422 41.2631 95.4453 41.5049 95.5188 41.6619C95.6741 41.9877 95.9784 41.988 96.2029 42.0456C96.2935 42.0664 96.3196 41.5517 96.3348 41.5431C96.3494 41.5362 96.3634 41.5327 96.3769 41.5318C96.548 41.5195 96.6648 41.942 96.8844 41.0176C96.6646 43.6444 97.0286 40.7805 97.2092 41.3302C97.2232 41.3744 97.1298 42.6167 97.0227 42.7894C96.9138 42.9616 96.8285 42.5598 96.6721 42.8262C96.6388 42.8896 96.3021 44.0203 96.263 44.0855C95.9811 44.6012 96.2574 42.7597 96.2667 42.6579C96.2844 42.4071 96.2787 42.2755 96.2576 42.2227C96.1889 42.0434 95.9258 42.7739 95.8707 42.8316C95.5529 43.1755 95.402 42.8746 95.1393 43.1046C94.9673 43.2525 94.6632 44.4328 94.5612 44.369C94.2164 44.1536 94.5699 42.4866 93.8395 43.8097C93.7587 43.9528 93.6388 44.3592 93.5459 44.5813C93.4569 44.7957 93.3889 44.8376 93.4144 44.3075C93.4151 44.2388 93.5193 43.2677 93.2314 43.8117C93.1949 43.8802 93.0764 44.25 93.0486 44.2753C92.864 44.4373 92.8815 44.1175 92.7069 44.2151C92.5323 44.3128 92.3053 44.4682 92.2047 44.293C92.1432 44.1879 92.278 43.4677 92.299 43.2869C92.3612 42.767 91.9537 43.5083 92.0989 42.9032C92.2479 42.2961 92.7057 41.4605 92.6738 41.0203C92.3256 41.9307 91.9602 42.8612 91.604 43.7759C91.5916 43.8078 91.5791 43.8398 91.5667 43.8717C91.1732 43.6858 90.9077 43.2307 90.5089 43.1184C90.459 43.1053 90.3052 43.628 90.2462 43.6269C90.0102 43.6202 89.9628 43.2269 89.7216 43.2357C89.7095 43.2361 89.6968 43.2376 89.6836 43.2402C89.4701 43.2839 89.0698 43.7403 88.8445 43.8043C89.1769 42.6931 88.7768 42.9528 88.6371 42.7824C88.5879 42.7231 88.7078 42.4391 88.7007 42.3277C88.6706 41.9145 88.369 42.8927 88.2632 43.0232C87.8869 43.4907 88.4168 42.0576 88.4462 41.5562C88.4521 41.4592 88.4395 41.3973 88.3985 41.3911C88.3845 41.388 87.7886 42.4765 87.7426 42.541C87.4363 42.9584 87.876 42.1332 87.8289 42.0177C87.744 41.8071 87.7414 41.4919 87.4511 41.7689C87.3639 41.8505 86.9974 42.5332 87.1073 41.9424C87.1213 41.8649 87.2629 41.4836 87.261 41.4576C87.2119 41.0189 86.7917 42.2265 86.5546 42.6026C86.4097 42.8318 86.3983 42.5911 86.4182 42.3101C86.4254 42.1281 86.4488 41.9302 86.465 41.8309C86.5714 41.1733 86.6289 41.589 86.6543 41.5293C86.9565 40.8199 86.7807 40.9015 86.6974 40.8054C87.0753 39.6104 86.9088 39.6341 86.6095 40.7105C86.5772 40.8282 86.6947 40.7442 86.6974 40.8054C86.222 41.9432 86.0052 42.0369 86.1931 40.8871C86.2817 40.3483 86.5616 39.7807 86.237 39.912C86.0893 39.9707 85.8533 40.8022 85.6735 40.9888C85.2611 41.4139 85.2196 40.5449 84.9427 40.5793C84.8405 40.5912 84.7637 41.0658 84.688 41.0891C84.4853 41.1518 84.4687 40.7681 84.2479 40.8797C84.2276 40.8903 84.0904 41.3669 84.0387 41.3543C83.8536 41.314 83.7078 41.2004 83.5668 41.0749C83.4056 40.9317 83.2499 40.7727 83.0452 40.6873C82.8592 40.6102 82.4236 40.73 82.2495 40.5999C81.9464 40.3777 81.8149 39.5437 81.4659 39.5848C81.2377 39.609 81.0835 40.0808 80.8707 40.3562C80.643 40.6509 80.5979 40.4188 80.6115 40.1218C80.6223 39.8809 80.6715 39.5972 80.6879 39.5157C80.6893 39.5099 80.8943 39.4723 80.9116 39.2028C81.0751 38.6969 80.6907 39.5145 80.6879 39.5157C80.7108 39.3983 80.4415 39.1564 80.3406 39.2145C80.2855 39.2465 80.1132 39.6827 80.088 39.6912C79.4925 39.8841 79.0122 39.7942 78.6771 39.3931C78.6736 39.381 78.9093 38.9126 78.8984 38.8901C78.753 38.5632 78.3197 39.0661 77.9479 39.3087C77.7269 39.4531 77.5987 39.4419 77.5906 39.2265C77.5851 39.0803 77.6351 38.8399 77.7488 38.49C77.5455 38.5156 77.5059 38.0503 77.4915 37.7721C77.4772 37.4941 76.9955 38.3935 76.9751 38.4058C76.3346 38.8027 76.4009 38.1788 76.0899 37.9106C75.9422 37.7813 75.5382 37.7313 75.3017 37.7283C75.115 37.7276 75.143 37.4736 74.9401 37.5291C74.9388 37.5294 74.9376 37.5298 74.9364 37.5301C74.9084 37.5379 74.7051 37.9447 74.6911 37.9569C74.276 38.3475 74.8909 37.4189 74.9574 37.2288C75.2002 36.5379 75.3246 36.1672 74.9713 36.3564C74.8911 36.4001 73.9692 37.7148 73.841 37.7487C73.6774 37.7911 74.004 37.318 73.8261 37.3751C73.8111 37.3795 73.6351 37.6863 73.5755 37.6334C73.2968 37.3923 73.0644 37.0139 72.7262 36.8485C72.6804 36.8246 72.4442 37.3376 72.3728 37.3106C72.1056 37.209 71.8499 37.0467 71.6817 36.7785C71.639 36.7103 71.6022 36.6354 71.5724 36.5531C71.5374 36.4517 71.794 36.1498 71.8417 36.0419C72.1302 35.3888 71.4421 36.1643 71.4084 36.1656C70.6111 36.2337 70.7275 35.1939 69.9368 35.1791C69.8939 35.1809 69.0302 35.9161 69.484 35.0816C69.5134 35.0255 69.9844 34.1768 69.5154 34.6511C69.4859 34.6807 69.2524 35.1245 69.1804 35.0099C69.1494 34.9603 69.0648 34.9605 68.9944 34.9326C68.9067 34.8994 68.8427 34.8182 68.9519 34.5154C69.0125 34.3467 69.4842 33.4999 68.9087 34.0288C68.8693 34.0662 67.6551 35.3257 68.2949 34.3115C68.4004 34.1447 69.1606 33.1325 68.6307 33.5486C68.5283 33.6295 68.4119 33.8943 68.234 33.9825C67.9605 34.1187 68.0118 33.7357 67.5393 34.0883C67.4561 34.151 66.8443 34.7675 67.1482 34.1815C67.1958 34.0898 67.4708 33.7674 67.4553 33.6973C67.3828 33.3624 66.9987 33.4305 66.9622 33.0404C66.9503 32.9172 67.3052 32.4851 67.4015 32.2497C67.4126 32.2224 67.4203 32.1978 67.4236 32.1766C67.4548 31.9723 67.4034 31.7156 67.1371 31.907C66.8706 32.0985 66.3124 33.0398 66.1392 33.0202C65.3859 32.9343 65.2427 32.0336 64.7722 31.568C64.7025 31.4988 64.5349 31.8597 64.4154 31.7802C64.3652 31.747 64.3084 31.7143 64.2473 31.6811C63.7716 31.4224 63.0375 31.1292 63.1508 30.298C63.2533 29.547 63.9254 29.4189 63.8622 29.0349C63.831 28.851 62.956 29.7773 62.9059 29.7896C62.5031 29.8971 62.5292 29.5373 62.3781 29.3772C62.3423 29.3393 62.2965 29.3126 62.2327 29.3059C62.1637 29.2989 61.9027 29.7444 61.8474 29.7338C61.6558 29.7015 61.648 29.4093 61.4908 29.3438C61.4196 29.3153 61.1953 29.6369 61.1589 29.5718C61.0693 29.4196 61.0529 29.2012 61.1466 28.8122C61.1551 28.7767 61.526 28.4457 61.4406 28.3588C61.3015 28.2193 61.3261 27.7843 60.9218 27.9482C60.8009 27.9981 60.2598 28.7117 60.5177 28.1316C60.5715 28.0104 61.2495 27.1747 60.5569 27.8163C60.4417 27.9228 59.4629 28.7543 59.8398 28.0266C59.8641 27.9796 59.9098 27.8987 59.9629 27.8041C60.1264 27.5128 60.3594 27.0923 60.2483 27.1391C60.2263 27.1502 59.971 27.5602 59.8898 27.5577C59.6085 27.5419 59.4438 27.3529 59.1612 27.3279C59.0851 27.322 58.8609 27.7766 58.7571 27.755C58.4711 27.6962 58.2856 27.3964 58.1747 27.1166C58.1344 27.0126 58.4361 26.724 58.4578 26.684C58.811 26.0357 58.1627 26.7805 58.0985 26.8038C57.7077 26.9389 57.849 26.4648 57.6066 26.4342C57.5405 26.4248 57.2888 26.8235 57.2542 26.8498C56.9103 27.1023 57.4929 26.4857 57.4886 26.3655C57.488 26.3458 57.4867 26.3269 57.4848 26.3087C57.4538 26.0135 57.2542 25.9075 57.0582 25.8291C56.9814 25.799 56.7217 26.286 56.6565 26.254C56.2647 26.0729 55.9472 25.7643 55.8028 25.2751C55.7762 25.1822 56.0703 24.8792 56.1158 24.7934C56.4356 24.194 55.7497 24.82 55.6669 24.8662C55.2894 25.0777 55.463 24.7433 55.3017 24.7066C55.2405 24.6932 55.1806 24.6763 55.1221 24.6564C55.1221 24.6564 55.1221 24.6564 55.1221 24.6564C54.6452 24.499 54.2426 24.1192 53.8898 23.7231C53.7379 23.5525 53.5956 23.3793 53.4623 23.2214C53.2339 22.9525 53.0419 22.6754 52.8541 22.4078C52.5247 21.939 52.2069 21.5001 51.7007 21.1529C51.7005 21.1529 51.7004 21.1528 51.7003 21.1527C51.6499 21.1174 51.3334 21.5811 51.2848 21.5557C50.7815 21.2686 50.4374 20.7901 49.9755 20.4088C49.875 20.3256 49.7695 20.2476 49.6543 20.1755C49.6016 20.1413 49.2967 20.5828 49.1988 20.5395C48.9957 20.4538 48.826 20.2435 48.7979 19.9721C48.7836 19.8406 49.2061 19.6242 49.186 19.4992C49.1441 19.2224 49.006 19.015 48.7902 18.8824C48.78 18.8761 48.7696 18.8699 48.759 18.864C48.6581 18.8079 48.3683 19.2942 48.267 19.1912C47.8383 18.7726 47.25 18.1376 47.026 17.5274C46.9668 17.2947 46.977 17.0625 47.0567 16.7721C47.0727 16.7137 47.9239 16.0167 47.7012 16.0736C47.456 16.2553 47.1727 16.4758 46.9134 16.6736C46.7985 16.5759 46.6966 16.4697 46.6031 16.3569C46.3474 16.0485 46.154 15.6895 45.9442 15.3382C45.7934 15.0856 45.6346 14.8375 45.4438 14.6219C45.4206 14.596 45.0553 15.0535 45.0094 15.0064C44.9443 14.9399 44.8722 14.8821 44.8024 14.823C44.5864 14.6402 44.3982 14.4511 44.4604 13.9318C44.4678 13.8642 45.1424 13.092 44.9511 13.1346C44.9286 13.1401 44.8233 13.1385 44.7045 13.1795C44.6432 13.2006 44.5785 13.233 44.5193 13.2827C44.4939 13.3054 44.2186 13.6977 44.1682 13.6753C43.88 13.5386 43.6978 13.2678 43.6137 12.857C43.6002 12.7898 43.9298 12.3977 43.9218 12.3456C43.9193 12.3311 43.9163 12.3174 43.9127 12.3045C43.819 11.9855 43.4202 12.137 43.4466 11.6392C43.46 11.2879 43.9471 10.5522 44.2816 9.74613C44.3282 9.6319 44.2319 9.55728 44.4646 9.10996C45.0478 7.98369 45.7709 6.79596 46.3878 5.59285C46.5204 5.33316 46.171 5.5026 46.6212 4.94509C46.6515 4.90765 46.9123 4.7829 47.0655 4.59507C47.1717 4.46517 47.37 3.98886 47.5278 3.8346C47.687 3.68147 47.5376 4.09035 47.751 3.92618C47.9672 3.76054 48.2174 3.23056 48.4418 3.28167ZM77.432 36.5282C77.547 36.0355 76.6973 37.6163 77.02 37.3004C77.0366 37.2833 77.4267 36.5525 77.432 36.5282ZM91.4111 41.9729C91.5505 41.1769 91.0155 42.2162 90.8974 42.8273C90.782 43.4387 91.3704 42.2148 91.4111 41.9729ZM93.2312 42.0346C93.2544 41.3822 92.3774 43.7713 92.7565 43.3585C92.7784 43.3353 93.2303 42.0727 93.2312 42.0346ZM44.8246 9.7758C44.8357 9.75459 44.7713 9.68877 44.7574 9.70806C44.4269 10.1744 44.5484 10.3011 44.8246 9.7758ZM95.0607 41.9333C95.0889 41.5854 94.8203 41.9248 94.7818 42.3576C94.7541 42.707 95.0297 42.3675 95.0607 41.9333ZM72.8239 31.5351C72.8377 31.5121 72.7928 31.4516 72.7072 31.5762C72.4318 31.9777 72.5935 31.9227 72.8239 31.5351ZM97.9725 42.3369C97.5062 42.2259 97.4659 40.1093 97.8342 40.3703C97.907 40.417 97.6426 41.0319 97.7265 41.2259C97.9021 41.5803 98.0473 40.264 98.2118 40.9716C98.2524 41.1017 98.0062 42.3487 97.9716 42.3398C97.9719 42.3388 97.9722 42.3379 97.9725 42.3369ZM78.3656 34.584C78.3744 34.5619 78.298 34.4965 78.285 34.5162C77.9726 34.9957 78.1284 35.1288 78.3656 34.584ZM70.1355 28.2021C70.1612 28.1582 70.0063 27.9851 69.9727 28.0182C69.3237 28.6972 69.6357 29.0497 70.1355 28.2021ZM84.8583 36.0974C85.1654 35.6022 85.3033 35.5835 85.1221 36.285C85.0384 36.2117 84.943 36.1685 84.8583 36.0974Z" fill="#D81212"/>
<path d="M104.092 71.124C104.476 71.46 104.668 71.88 104.668 72.384C104.668 72.72 104.584 73.008 104.416 73.248C103.24 74.88 101.752 76.188 99.952 77.172C98.152 78.156 96.196 78.648 94.084 78.648C92.308 78.648 90.64 78.3 89.08 77.604C87.52 76.884 86.152 75.912 84.976 74.688C83.8 73.44 82.876 72 82.204 70.368C81.532 68.736 81.196 66.996 81.196 65.148C81.196 63.276 81.532 61.536 82.204 59.928C82.876 58.296 83.8 56.868 84.976 55.644C86.152 54.396 87.52 53.424 89.08 52.728C90.64 52.032 92.308 51.684 94.084 51.684C95.884 51.684 97.468 51.972 98.836 52.548C100.228 53.124 101.464 53.928 102.544 54.96C103.024 55.416 103.456 55.92 103.84 56.472C104.224 57.024 104.416 57.624 104.416 58.272C104.416 58.872 104.2 59.4 103.768 59.856C103.336 60.312 102.808 60.54 102.184 60.54C101.536 60.54 101.008 60.312 100.6 59.856C100.192 59.4 99.988 58.884 99.988 58.308C99.988 57.852 100.108 57.456 100.348 57.12C100.468 56.928 100.456 56.772 100.312 56.652C99.544 55.812 98.608 55.224 97.504 54.888C96.424 54.528 95.284 54.348 94.084 54.348C92.14 54.348 90.412 54.828 88.9 55.788C87.388 56.748 86.188 58.044 85.3 59.676C84.436 61.284 84.004 63.108 84.004 65.148C84.004 67.188 84.448 69.012 85.336 70.62C86.224 72.228 87.424 73.5 88.936 74.436C90.472 75.348 92.188 75.804 94.084 75.804C95.812 75.804 97.396 75.42 98.836 74.652C100.276 73.86 101.44 72.792 102.328 71.448C102.592 71.064 102.94 70.872 103.372 70.872C103.66 70.872 103.9 70.956 104.092 71.124ZM124.568 75.876C124.928 75.876 125.228 76.02 125.468 76.308C125.732 76.572 125.864 76.884 125.864 77.244C125.864 77.676 125.708 78.024 125.396 78.288C125.084 78.576 124.724 78.684 124.316 78.612C124.004 78.54 123.668 78.48 123.308 78.432C122.948 78.384 122.588 78.348 122.228 78.324C121.748 78.324 121.316 78.18 120.932 77.892C120.548 77.604 120.284 77.232 120.14 76.776C120.068 76.56 119.948 76.524 119.78 76.668C118.964 77.292 118.076 77.772 117.116 78.108C116.156 78.444 115.016 78.612 113.696 78.612C112.112 78.612 110.792 78.156 109.736 77.244C108.68 76.308 108.152 75.096 108.152 73.608C108.152 71.904 108.752 70.512 109.952 69.432C111.152 68.352 112.736 67.812 114.704 67.812C115.448 67.812 116.24 67.896 117.08 68.064C117.92 68.232 118.784 68.496 119.672 68.856C119.696 68.856 119.72 68.868 119.744 68.892C119.768 68.892 119.792 68.892 119.816 68.892C119.984 68.892 120.068 68.796 120.068 68.604V67.164C120.068 65.46 119.612 64.188 118.7 63.348C117.812 62.508 116.768 62.088 115.568 62.088C114.776 62.088 113.96 62.268 113.12 62.628C112.952 62.724 112.892 62.868 112.94 63.06C113.012 63.276 113.048 63.48 113.048 63.672C113.048 64.2 112.856 64.68 112.472 65.112C112.112 65.544 111.62 65.76 110.996 65.76C110.348 65.76 109.832 65.544 109.448 65.112C109.088 64.656 108.908 64.14 108.908 63.564C108.908 62.964 109.124 62.412 109.556 61.908C110.204 61.164 111.008 60.588 111.968 60.18C112.952 59.772 113.996 59.568 115.1 59.568C116.972 59.568 118.46 59.916 119.564 60.612C120.692 61.308 121.496 62.232 121.976 63.384C122.48 64.536 122.732 65.796 122.732 67.164V75.84C122.732 76.032 122.828 76.128 123.02 76.128C123.284 76.128 123.548 76.092 123.812 76.02C124.076 75.924 124.328 75.876 124.568 75.876ZM113.696 76.02C115.088 75.972 116.252 75.744 117.188 75.336C118.124 74.928 119.036 74.268 119.924 73.356C120.02 73.236 120.068 73.104 120.068 72.96V71.952C120.068 71.784 119.996 71.664 119.852 71.592C119.348 71.304 118.712 71.016 117.944 70.728C117.176 70.44 116.144 70.296 114.848 70.296C113.36 70.296 112.292 70.632 111.644 71.304C111.02 71.976 110.708 72.744 110.708 73.608C110.708 74.184 110.864 74.652 111.176 75.012C111.488 75.348 111.872 75.6 112.328 75.768C112.808 75.936 113.264 76.02 113.696 76.02ZM145.239 73.536C145.527 73.848 145.671 74.208 145.671 74.616C145.671 75 145.551 75.312 145.311 75.552C144.423 76.512 143.367 77.268 142.143 77.82C140.919 78.348 139.659 78.612 138.363 78.612C136.827 78.612 135.459 78.348 134.259 77.82C133.059 77.268 132.039 76.536 131.199 75.624C130.359 74.688 129.723 73.656 129.291 72.528C128.859 71.4 128.643 70.26 128.643 69.108C128.643 67.332 129.039 65.724 129.831 64.284C130.647 62.844 131.751 61.704 133.143 60.864C134.535 60 136.119 59.568 137.895 59.568C140.703 59.568 142.899 60.528 144.483 62.448C144.819 62.832 145.107 63.276 145.347 63.78C145.611 64.26 145.743 64.74 145.743 65.22C145.743 65.676 145.647 66.06 145.455 66.372C145.287 66.684 145.047 66.936 144.735 67.128C144.423 67.32 144.063 67.416 143.655 67.416C143.079 67.416 142.587 67.212 142.179 66.804C141.795 66.372 141.603 65.868 141.603 65.292C141.603 65.076 141.639 64.872 141.711 64.68C141.807 64.464 141.903 64.284 141.999 64.14C142.119 63.972 142.119 63.816 141.999 63.672C141.567 63.12 140.991 62.712 140.271 62.448C139.551 62.184 138.759 62.052 137.895 62.052C136.599 62.052 135.459 62.364 134.475 62.988C133.491 63.612 132.723 64.452 132.171 65.508C131.619 66.564 131.343 67.764 131.343 69.108C131.343 70.356 131.631 71.508 132.207 72.564C132.807 73.596 133.623 74.436 134.655 75.084C135.687 75.708 136.887 76.02 138.255 76.02C139.311 76.02 140.283 75.792 141.171 75.336C142.059 74.88 142.839 74.292 143.511 73.572C143.775 73.308 144.075 73.176 144.411 73.176C144.747 73.176 145.023 73.296 145.239 73.536ZM159.694 72.42C160.102 72.42 160.45 72.564 160.738 72.852C161.026 73.14 161.146 73.488 161.098 73.896C160.738 77.064 159.166 78.648 156.382 78.648C155.47 78.648 154.666 78.432 153.97 78C153.298 77.568 152.77 77.004 152.386 76.308C152.002 75.588 151.81 74.808 151.81 73.968V62.664C151.81 62.448 151.702 62.34 151.486 62.34H149.326C148.99 62.34 148.69 62.22 148.426 61.98C148.186 61.716 148.066 61.416 148.066 61.08C148.066 60.744 148.186 60.456 148.426 60.216C148.69 59.976 148.99 59.856 149.326 59.856H151.486C151.702 59.856 151.81 59.748 151.81 59.532V53.376C151.81 52.992 151.942 52.668 152.206 52.404C152.47 52.14 152.794 52.008 153.178 52.008C153.538 52.008 153.85 52.14 154.114 52.404C154.378 52.668 154.51 52.992 154.51 53.376V59.532C154.51 59.748 154.618 59.856 154.834 59.856H159.19C159.526 59.856 159.814 59.976 160.054 60.216C160.294 60.456 160.414 60.744 160.414 61.08C160.414 61.416 160.294 61.716 160.054 61.98C159.814 62.22 159.526 62.34 159.19 62.34H154.834C154.618 62.34 154.51 62.448 154.51 62.664V73.968C154.51 74.04 154.534 74.244 154.582 74.58C154.654 74.892 154.822 75.204 155.086 75.516C155.35 75.804 155.782 75.948 156.382 75.948C157.078 75.948 157.57 75.756 157.858 75.372C158.146 74.988 158.338 74.4 158.434 73.608C158.482 73.272 158.626 72.996 158.866 72.78C159.106 72.54 159.382 72.42 159.694 72.42ZM183.989 75.948C184.397 75.9 184.745 76.008 185.033 76.272C185.321 76.536 185.465 76.872 185.465 77.28C185.465 77.664 185.321 77.988 185.033 78.252C184.745 78.54 184.397 78.66 183.989 78.612C183.653 78.564 183.293 78.504 182.909 78.432C182.525 78.384 182.153 78.348 181.793 78.324C181.193 78.3 180.677 78.084 180.245 77.676C179.837 77.268 179.633 76.764 179.633 76.164V75.66C179.633 75.516 179.585 75.432 179.489 75.408C179.417 75.36 179.333 75.396 179.237 75.516C178.517 76.428 177.689 77.172 176.753 77.748C175.817 78.324 174.749 78.612 173.549 78.612C171.893 78.612 170.441 78.18 169.193 77.316C168.665 76.932 168.137 76.368 167.609 75.624C167.105 74.856 166.853 73.848 166.853 72.6V62.268C166.853 62.076 166.769 61.98 166.601 61.98C166.313 61.98 166.025 62.004 165.737 62.052C165.473 62.076 165.209 62.088 164.945 62.088C164.609 62.088 164.321 61.968 164.081 61.728C163.841 61.488 163.721 61.188 163.721 60.828C163.721 60.468 163.853 60.168 164.117 59.928C164.381 59.664 164.693 59.556 165.053 59.604C165.605 59.652 166.037 59.688 166.349 59.712C166.685 59.712 167.033 59.724 167.393 59.748C167.993 59.748 168.497 59.964 168.905 60.396C169.337 60.804 169.553 61.308 169.553 61.908V72.6C169.553 73.392 169.721 74.016 170.057 74.472C170.393 74.904 170.801 75.228 171.281 75.444C171.761 75.66 172.217 75.792 172.649 75.84C173.081 75.888 173.381 75.912 173.549 75.912C174.749 75.912 175.853 75.528 176.861 74.76C177.893 73.968 178.781 72.984 179.525 71.808C179.597 71.664 179.633 71.532 179.633 71.412V62.268C179.633 62.076 179.549 61.98 179.381 61.98C179.117 61.98 178.829 62.004 178.517 62.052C178.229 62.076 177.965 62.088 177.725 62.088C177.389 62.088 177.101 61.968 176.861 61.728C176.621 61.488 176.501 61.188 176.501 60.828C176.501 60.468 176.633 60.168 176.897 59.928C177.161 59.664 177.473 59.556 177.833 59.604C178.385 59.652 178.817 59.688 179.129 59.712C179.465 59.712 179.813 59.724 180.173 59.748C180.773 59.748 181.277 59.964 181.685 60.396C182.117 60.804 182.333 61.308 182.333 61.908V75.84C182.333 76.032 182.429 76.128 182.621 76.128C182.861 76.128 183.089 76.104 183.305 76.056C183.521 76.008 183.749 75.972 183.989 75.948ZM192.62 64.968C192.62 65.568 192.908 66.036 193.484 66.372C194.084 66.708 194.84 66.984 195.752 67.2C196.688 67.416 197.672 67.644 198.704 67.884C199.736 68.124 200.708 68.436 201.62 68.82C202.556 69.204 203.312 69.744 203.888 70.44C204.488 71.112 204.788 72.024 204.788 73.176C204.788 74.16 204.476 75.072 203.852 75.912C203.252 76.728 202.352 77.388 201.152 77.892C199.976 78.372 198.524 78.612 196.796 78.612C195.884 78.612 194.948 78.504 193.988 78.288C193.052 78.072 192.188 77.772 191.396 77.388C190.604 76.98 189.968 76.512 189.488 75.984C189.008 75.432 188.768 74.82 188.768 74.148C188.768 73.572 188.972 73.08 189.38 72.672C189.788 72.264 190.268 72.06 190.82 72.06C191.444 72.06 191.936 72.276 192.296 72.708C192.68 73.116 192.872 73.596 192.872 74.148C192.872 74.244 192.86 74.34 192.836 74.436C192.836 74.508 192.824 74.592 192.8 74.688C192.776 74.712 192.764 74.76 192.764 74.832C192.764 74.952 192.836 75.048 192.98 75.12C193.508 75.336 194.096 75.54 194.744 75.732C195.392 75.924 196.076 76.02 196.796 76.02C197.732 76.02 198.596 75.912 199.388 75.696C200.204 75.456 200.852 75.12 201.332 74.688C201.836 74.256 202.088 73.716 202.088 73.068C202.088 72.396 201.788 71.88 201.188 71.52C200.612 71.136 199.856 70.836 198.92 70.62C198.008 70.38 197.036 70.152 196.004 69.936C194.972 69.696 193.988 69.396 193.052 69.036C192.14 68.652 191.384 68.148 190.784 67.524C190.208 66.876 189.92 66.024 189.92 64.968C189.92 64.008 190.184 63.132 190.712 62.34C191.264 61.524 192.08 60.876 193.16 60.396C194.264 59.892 195.632 59.64 197.264 59.64C198.368 59.64 199.412 59.784 200.396 60.072C201.404 60.36 202.22 60.78 202.844 61.332C203.492 61.884 203.816 62.544 203.816 63.312C203.816 63.384 203.816 63.468 203.816 63.564C203.816 63.636 203.804 63.708 203.78 63.78C203.708 64.26 203.48 64.668 203.096 65.004C202.712 65.316 202.268 65.472 201.764 65.472C201.164 65.472 200.672 65.268 200.288 64.86C199.904 64.452 199.712 63.972 199.712 63.42C199.712 63.348 199.712 63.276 199.712 63.204C199.712 63.108 199.724 63.024 199.748 62.952C199.772 62.928 199.784 62.88 199.784 62.808C199.784 62.664 199.712 62.58 199.568 62.556C198.968 62.292 198.2 62.16 197.264 62.16C196.544 62.16 195.824 62.268 195.104 62.484C194.384 62.676 193.784 62.976 193.304 63.384C192.848 63.792 192.62 64.32 192.62 64.968Z" fill="black"/>
<path d="M102.52 111.648C101.176 111.648 99.916 111.408 98.74 110.928C97.564 110.424 96.532 109.74 95.644 108.876C94.756 107.988 94.06 106.968 93.556 105.816C93.052 104.664 92.8 103.428 92.8 102.108C92.8 100.788 93.052 99.552 93.556 98.4C94.06 97.248 94.756 96.24 95.644 95.376C96.532 94.488 97.564 93.804 98.74 93.324C99.916 92.82 101.176 92.568 102.52 92.568C103.864 92.568 105.112 92.82 106.264 93.324C107.44 93.804 108.472 94.488 109.36 95.376C110.248 96.24 110.944 97.248 111.448 98.4C111.952 99.552 112.204 100.788 112.204 102.108C112.204 103.428 111.952 104.664 111.448 105.816C110.944 106.968 110.248 107.988 109.36 108.876C108.472 109.74 107.44 110.424 106.264 110.928C105.112 111.408 103.864 111.648 102.52 111.648ZM102.52 109.092C103.888 109.092 105.1 108.768 106.156 108.12C107.212 107.472 108.04 106.62 108.64 105.564C109.24 104.508 109.54 103.356 109.54 102.108C109.54 100.86 109.228 99.708 108.604 98.652C108.004 97.596 107.176 96.744 106.12 96.096C105.064 95.448 103.864 95.124 102.52 95.124C101.128 95.124 99.904 95.448 98.848 96.096C97.792 96.744 96.964 97.596 96.364 98.652C95.764 99.708 95.464 100.86 95.464 102.108C95.464 103.356 95.764 104.508 96.364 105.564C96.988 106.62 97.828 107.472 98.884 108.12C99.94 108.768 101.152 109.092 102.52 109.092ZM135.52 108.948C135.928 108.9 136.276 109.008 136.564 109.272C136.852 109.536 136.996 109.872 136.996 110.28C136.996 110.664 136.852 110.988 136.564 111.252C136.276 111.54 135.928 111.66 135.52 111.612C135.184 111.564 134.824 111.504 134.44 111.432C134.056 111.384 133.684 111.348 133.324 111.324C132.724 111.3 132.208 111.084 131.776 110.676C131.368 110.268 131.164 109.764 131.164 109.164V108.66C131.164 108.516 131.116 108.432 131.02 108.408C130.948 108.36 130.864 108.396 130.768 108.516C130.048 109.428 129.22 110.172 128.284 110.748C127.348 111.324 126.28 111.612 125.08 111.612C123.424 111.612 121.972 111.18 120.724 110.316C120.196 109.932 119.668 109.368 119.14 108.624C118.636 107.856 118.384 106.848 118.384 105.6V95.268C118.384 95.076 118.3 94.98 118.132 94.98C117.844 94.98 117.556 95.004 117.268 95.052C117.004 95.076 116.74 95.088 116.476 95.088C116.14 95.088 115.852 94.968 115.612 94.728C115.372 94.488 115.252 94.188 115.252 93.828C115.252 93.468 115.384 93.168 115.648 92.928C115.912 92.664 116.224 92.556 116.584 92.604C117.136 92.652 117.568 92.688 117.88 92.712C118.216 92.712 118.564 92.724 118.924 92.748C119.524 92.748 120.028 92.964 120.436 93.396C120.868 93.804 121.084 94.308 121.084 94.908V105.6C121.084 106.392 121.252 107.016 121.588 107.472C121.924 107.904 122.332 108.228 122.812 108.444C123.292 108.66 123.748 108.792 124.18 108.84C124.612 108.888 124.912 108.912 125.08 108.912C126.28 108.912 127.384 108.528 128.392 107.76C129.424 106.968 130.312 105.984 131.056 104.808C131.128 104.664 131.164 104.532 131.164 104.412V95.268C131.164 95.076 131.08 94.98 130.912 94.98C130.648 94.98 130.36 95.004 130.048 95.052C129.76 95.076 129.496 95.088 129.256 95.088C128.92 95.088 128.632 94.968 128.392 94.728C128.152 94.488 128.032 94.188 128.032 93.828C128.032 93.468 128.164 93.168 128.428 92.928C128.692 92.664 129.004 92.556 129.364 92.604C129.916 92.652 130.348 92.688 130.66 92.712C130.996 92.712 131.344 92.724 131.704 92.748C132.304 92.748 132.808 92.964 133.216 93.396C133.648 93.804 133.864 94.308 133.864 94.908V108.84C133.864 109.032 133.96 109.128 134.152 109.128C134.392 109.128 134.62 109.104 134.836 109.056C135.052 109.008 135.28 108.972 135.52 108.948ZM144.151 97.968C144.151 98.568 144.439 99.036 145.015 99.372C145.615 99.708 146.371 99.984 147.283 100.2C148.219 100.416 149.203 100.644 150.235 100.884C151.267 101.124 152.239 101.436 153.151 101.82C154.087 102.204 154.843 102.744 155.419 103.44C156.019 104.112 156.319 105.024 156.319 106.176C156.319 107.16 156.007 108.072 155.383 108.912C154.783 109.728 153.883 110.388 152.683 110.892C151.507 111.372 150.055 111.612 148.327 111.612C147.415 111.612 146.479 111.504 145.519 111.288C144.583 111.072 143.719 110.772 142.927 110.388C142.135 109.98 141.499 109.512 141.019 108.984C140.539 108.432 140.299 107.82 140.299 107.148C140.299 106.572 140.503 106.08 140.911 105.672C141.319 105.264 141.799 105.06 142.351 105.06C142.975 105.06 143.467 105.276 143.827 105.708C144.211 106.116 144.403 106.596 144.403 107.148C144.403 107.244 144.391 107.34 144.367 107.436C144.367 107.508 144.355 107.592 144.331 107.688C144.307 107.712 144.295 107.76 144.295 107.832C144.295 107.952 144.367 108.048 144.511 108.12C145.039 108.336 145.627 108.54 146.275 108.732C146.923 108.924 147.607 109.02 148.327 109.02C149.263 109.02 150.127 108.912 150.919 108.696C151.735 108.456 152.383 108.12 152.863 107.688C153.367 107.256 153.619 106.716 153.619 106.068C153.619 105.396 153.319 104.88 152.719 104.52C152.143 104.136 151.387 103.836 150.451 103.62C149.539 103.38 148.567 103.152 147.535 102.936C146.503 102.696 145.519 102.396 144.583 102.036C143.671 101.652 142.915 101.148 142.315 100.524C141.739 99.876 141.451 99.024 141.451 97.968C141.451 97.008 141.715 96.132 142.243 95.34C142.795 94.524 143.611 93.876 144.691 93.396C145.795 92.892 147.163 92.64 148.795 92.64C149.899 92.64 150.943 92.784 151.927 93.072C152.935 93.36 153.751 93.78 154.375 94.332C155.023 94.884 155.347 95.544 155.347 96.312C155.347 96.384 155.347 96.468 155.347 96.564C155.347 96.636 155.335 96.708 155.311 96.78C155.239 97.26 155.011 97.668 154.627 98.004C154.243 98.316 153.799 98.472 153.295 98.472C152.695 98.472 152.203 98.268 151.819 97.86C151.435 97.452 151.243 96.972 151.243 96.42C151.243 96.348 151.243 96.276 151.243 96.204C151.243 96.108 151.255 96.024 151.279 95.952C151.303 95.928 151.315 95.88 151.315 95.808C151.315 95.664 151.243 95.58 151.099 95.556C150.499 95.292 149.731 95.16 148.795 95.16C148.075 95.16 147.355 95.268 146.635 95.484C145.915 95.676 145.315 95.976 144.835 96.384C144.379 96.792 144.151 97.32 144.151 97.968ZM175.642 103.296H163.042C162.802 103.296 162.706 103.416 162.754 103.656C162.97 104.712 163.39 105.648 164.014 106.464C164.638 107.28 165.406 107.916 166.318 108.372C167.23 108.828 168.214 109.056 169.27 109.056C170.182 109.056 171.046 108.864 171.862 108.48C172.702 108.072 173.422 107.532 174.022 106.86C174.382 106.5 174.766 106.32 175.174 106.32C175.438 106.32 175.69 106.404 175.93 106.572C176.314 106.836 176.506 107.196 176.506 107.652C176.506 107.964 176.41 108.216 176.218 108.408C175.354 109.416 174.31 110.208 173.086 110.784C171.886 111.336 170.614 111.612 169.27 111.612C167.542 111.612 165.97 111.18 164.554 110.316C163.162 109.452 162.046 108.3 161.206 106.86C160.39 105.42 159.982 103.836 159.982 102.108C159.982 100.356 160.366 98.76 161.134 97.32C161.902 95.88 162.958 94.728 164.302 93.864C165.67 93 167.206 92.568 168.91 92.568C170.59 92.568 172.054 92.928 173.302 93.648C174.55 94.368 175.546 95.376 176.29 96.672C177.058 97.944 177.526 99.432 177.694 101.136C177.766 101.736 177.586 102.252 177.154 102.684C176.746 103.092 176.242 103.296 175.642 103.296ZM168.91 94.98C167.23 94.98 165.85 95.472 164.77 96.456C163.69 97.44 163.018 98.736 162.754 100.344C162.754 100.368 162.742 100.392 162.718 100.416C162.718 100.416 162.718 100.428 162.718 100.452C162.718 100.62 162.826 100.704 163.042 100.704H174.598C174.862 100.704 174.958 100.584 174.886 100.344C174.598 98.664 173.962 97.356 172.978 96.42C172.018 95.46 170.662 94.98 168.91 94.98Z" fill="black"/>
</svg>
