<svg width="279" height="89" viewBox="0 0 279 89" fill="none" xmlns="http://www.w3.org/2000/svg">
<path d="M206.971 74.088H184.571C184.144 74.088 183.974 74.3013 184.059 74.728C184.443 76.6053 185.19 78.2693 186.299 79.72C187.408 81.1707 188.774 82.3013 190.395 83.112C192.016 83.9227 193.766 84.328 195.643 84.328C197.264 84.328 198.8 83.9867 200.251 83.304C201.744 82.5787 203.024 81.6187 204.091 80.424C204.731 79.784 205.414 79.464 206.139 79.464C206.608 79.464 207.056 79.6133 207.483 79.912C208.166 80.3813 208.507 81.0213 208.507 81.832C208.507 82.3867 208.336 82.8347 207.995 83.176C206.459 84.968 204.603 86.376 202.427 87.4C200.294 88.3813 198.032 88.872 195.643 88.872C192.571 88.872 189.776 88.104 187.259 86.568C184.784 85.032 182.8 82.984 181.307 80.424C179.856 77.864 179.131 75.048 179.131 71.976C179.131 68.8613 179.814 66.024 181.179 63.464C182.544 60.904 184.422 58.856 186.811 57.32C189.243 55.784 191.974 55.016 195.003 55.016C197.99 55.016 200.592 55.656 202.811 56.936C205.03 58.216 206.8 60.008 208.123 62.312C209.488 64.5733 210.32 67.2187 210.619 70.248C210.747 71.3147 210.427 72.232 209.659 73C208.934 73.7253 208.038 74.088 206.971 74.088ZM195.003 59.304C192.016 59.304 189.563 60.1787 187.643 61.928C185.723 63.6773 184.528 65.9813 184.059 68.84C184.059 68.8827 184.038 68.9253 183.995 68.968C183.995 68.968 183.995 68.9893 183.995 69.032C183.995 69.3307 184.187 69.48 184.571 69.48H205.115C205.584 69.48 205.755 69.2667 205.627 68.84C205.115 65.8533 203.984 63.528 202.235 61.864C200.528 60.1573 198.118 59.304 195.003 59.304Z" fill="black"/>
<path d="M150.988 64.616C150.988 65.6827 151.5 66.5147 152.524 67.112C153.591 67.7093 154.935 68.2 156.556 68.584C158.22 68.968 159.969 69.3733 161.804 69.8C163.639 70.2267 165.367 70.7813 166.988 71.464C168.652 72.1467 169.996 73.1067 171.02 74.344C172.087 75.5387 172.62 77.16 172.62 79.208C172.62 80.9573 172.065 82.5787 170.956 84.072C169.889 85.5227 168.289 86.696 166.156 87.592C164.065 88.4453 161.484 88.872 158.412 88.872C156.791 88.872 155.127 88.68 153.42 88.296C151.756 87.912 150.22 87.3787 148.812 86.696C147.404 85.9707 146.273 85.1387 145.42 84.2C144.567 83.2187 144.14 82.1307 144.14 80.936C144.14 79.912 144.503 79.0373 145.228 78.312C145.953 77.5867 146.807 77.224 147.788 77.224C148.897 77.224 149.772 77.608 150.412 78.376C151.095 79.1013 151.436 79.9547 151.436 80.936C151.436 81.1067 151.415 81.2773 151.372 81.448C151.372 81.576 151.351 81.7253 151.308 81.896C151.265 81.9387 151.244 82.024 151.244 82.152C151.244 82.3653 151.372 82.536 151.628 82.664C152.567 83.048 153.612 83.4107 154.764 83.752C155.916 84.0933 157.132 84.264 158.412 84.264C160.076 84.264 161.612 84.072 163.02 83.688C164.471 83.2613 165.623 82.664 166.476 81.896C167.372 81.128 167.82 80.168 167.82 79.016C167.82 77.8213 167.287 76.904 166.22 76.264C165.196 75.5813 163.852 75.048 162.188 74.664C160.567 74.2373 158.839 73.832 157.004 73.448C155.169 73.0213 153.42 72.488 151.756 71.848C150.135 71.1653 148.791 70.2693 147.724 69.16C146.7 68.008 146.188 66.4933 146.188 64.616C146.188 62.9093 146.657 61.352 147.596 59.944C148.577 58.4933 150.028 57.3413 151.948 56.488C153.911 55.592 156.343 55.144 159.244 55.144C161.207 55.144 163.063 55.4 164.812 55.912C166.604 56.424 168.055 57.1707 169.164 58.152C170.316 59.1333 170.892 60.3067 170.892 61.672C170.892 61.8 170.892 61.9493 170.892 62.12C170.892 62.248 170.871 62.376 170.828 62.504C170.7 63.3573 170.295 64.0827 169.612 64.68C168.929 65.2347 168.14 65.512 167.244 65.512C166.177 65.512 165.303 65.1493 164.62 64.424C163.937 63.6987 163.596 62.8453 163.596 61.864C163.596 61.736 163.596 61.608 163.596 61.48C163.596 61.3093 163.617 61.16 163.66 61.032C163.703 60.9893 163.724 60.904 163.724 60.776C163.724 60.52 163.596 60.3707 163.34 60.328C162.273 59.8587 160.908 59.624 159.244 59.624C157.964 59.624 156.684 59.816 155.404 60.2C154.124 60.5413 153.057 61.0747 152.204 61.8C151.393 62.5253 150.988 63.464 150.988 64.616Z" fill="black"/>
<path d="M135.643 84.136C136.369 84.0507 136.987 84.2427 137.499 84.712C138.011 85.1813 138.267 85.7787 138.267 86.504C138.267 87.1867 138.011 87.7627 137.499 88.232C136.987 88.744 136.369 88.9573 135.643 88.872C135.046 88.7867 134.406 88.68 133.723 88.552C133.041 88.4667 132.379 88.4027 131.739 88.36C130.673 88.3173 129.755 87.9333 128.987 87.208C128.262 86.4827 127.899 85.5867 127.899 84.52V83.624C127.899 83.368 127.814 83.2187 127.643 83.176C127.515 83.0907 127.366 83.1547 127.195 83.368C125.915 84.9893 124.443 86.312 122.779 87.336C121.115 88.36 119.217 88.872 117.083 88.872C114.139 88.872 111.558 88.104 109.339 86.568C108.401 85.8853 107.462 84.8827 106.523 83.56C105.627 82.1947 105.179 80.4027 105.179 78.184V59.816C105.179 59.4747 105.03 59.304 104.731 59.304C104.219 59.304 103.707 59.3467 103.195 59.432C102.726 59.4747 102.257 59.496 101.787 59.496C101.19 59.496 100.678 59.2827 100.251 58.856C99.8248 58.4293 99.6115 57.896 99.6115 57.256C99.6115 56.616 99.8461 56.0827 100.315 55.656C100.785 55.1867 101.339 54.9947 101.979 55.08C102.961 55.1653 103.729 55.2293 104.283 55.272C104.881 55.272 105.499 55.2933 106.139 55.336C107.206 55.336 108.102 55.72 108.827 56.488C109.595 57.2133 109.979 58.1093 109.979 59.176V78.184C109.979 79.592 110.278 80.7013 110.875 81.512C111.473 82.28 112.198 82.856 113.051 83.24C113.905 83.624 114.715 83.8587 115.483 83.944C116.251 84.0293 116.785 84.072 117.083 84.072C119.217 84.072 121.179 83.3893 122.971 82.024C124.806 80.616 126.385 78.8667 127.707 76.776C127.835 76.52 127.899 76.2853 127.899 76.072V59.816C127.899 59.4747 127.75 59.304 127.451 59.304C126.982 59.304 126.47 59.3467 125.915 59.432C125.403 59.4747 124.934 59.496 124.507 59.496C123.91 59.496 123.398 59.2827 122.971 58.856C122.545 58.4293 122.331 57.896 122.331 57.256C122.331 56.616 122.566 56.0827 123.035 55.656C123.505 55.1867 124.059 54.9947 124.699 55.08C125.681 55.1653 126.449 55.2293 127.003 55.272C127.601 55.272 128.219 55.2933 128.859 55.336C129.926 55.336 130.822 55.72 131.547 56.488C132.315 57.2133 132.699 58.1093 132.699 59.176V83.944C132.699 84.2853 132.87 84.456 133.211 84.456C133.638 84.456 134.043 84.4133 134.427 84.328C134.811 84.2427 135.217 84.1787 135.643 84.136Z" fill="black"/>
<path d="M76.9764 88.936C74.5871 88.936 72.3471 88.5093 70.2564 87.656C68.1658 86.76 66.3311 85.544 64.7524 84.008C63.1738 82.4293 61.9364 80.616 61.0404 78.568C60.1444 76.52 59.6964 74.3227 59.6964 71.976C59.6964 69.6293 60.1444 67.432 61.0404 65.384C61.9364 63.336 63.1738 61.544 64.7524 60.008C66.3311 58.4293 68.1658 57.2133 70.2564 56.36C72.3471 55.464 74.5871 55.016 76.9764 55.016C79.3658 55.016 81.5844 55.464 83.6324 56.36C85.7231 57.2133 87.5578 58.4293 89.1364 60.008C90.7151 61.544 91.9524 63.336 92.8484 65.384C93.7444 67.432 94.1924 69.6293 94.1924 71.976C94.1924 74.3227 93.7444 76.52 92.8484 78.568C91.9524 80.616 90.7151 82.4293 89.1364 84.008C87.5578 85.544 85.7231 86.76 83.6324 87.656C81.5844 88.5093 79.3658 88.936 76.9764 88.936ZM76.9764 84.392C79.4084 84.392 81.5631 83.816 83.4404 82.664C85.3178 81.512 86.7898 79.9973 87.8564 78.12C88.9231 76.2427 89.4564 74.1947 89.4564 71.976C89.4564 69.7573 88.9018 67.7093 87.7924 65.832C86.7258 63.9547 85.2538 62.44 83.3764 61.288C81.4991 60.136 79.3658 59.56 76.9764 59.56C74.5018 59.56 72.3258 60.136 70.4484 61.288C68.5711 62.44 67.0991 63.9547 66.0324 65.832C64.9658 67.7093 64.4324 69.7573 64.4324 71.976C64.4324 74.1947 64.9658 76.2427 66.0324 78.12C67.1418 79.9973 68.6351 81.512 70.5124 82.664C72.3898 83.816 74.5444 84.392 76.9764 84.392Z" fill="black"/>
<path d="M50.3965 83.944C51.1218 83.8587 51.7405 84.072 52.2525 84.584C52.7645 85.096 53.0205 85.7147 53.0205 86.44C53.0205 87.1653 52.7645 87.7627 52.2525 88.232C51.7405 88.744 51.1218 88.9787 50.3965 88.936C49.2018 88.808 48.1138 88.7013 47.1325 88.616C46.1511 88.5733 45.1911 88.552 44.2525 88.552C43.3991 88.552 42.5031 88.5733 41.5645 88.616C40.6685 88.7013 39.6658 88.808 38.5565 88.936C37.8738 88.9787 37.2551 88.744 36.7005 88.232C36.1885 87.7627 35.9325 87.1653 35.9325 86.44C35.9325 85.7147 36.1885 85.096 36.7005 84.584C37.2551 84.072 37.8738 83.8587 38.5565 83.944C39.1111 83.9867 39.6871 84.0293 40.2845 84.072C40.8818 84.1147 41.4791 84.1787 42.0765 84.264C42.4605 84.264 42.6525 84.072 42.6525 83.688V67.048C42.6525 66.664 42.4605 66.472 42.0765 66.472H18.3965C18.0125 66.472 17.8205 66.664 17.8205 67.048V83.688C17.8205 84.072 18.0125 84.264 18.3965 84.264C18.9938 84.1787 19.5911 84.1147 20.1885 84.072C20.7858 84.0293 21.3618 83.9867 21.9165 83.944C22.6418 83.8587 23.2605 84.072 23.7725 84.584C24.2845 85.096 24.5405 85.7147 24.5405 86.44C24.5405 87.1653 24.2845 87.7627 23.7725 88.232C23.2605 88.744 22.6418 88.9787 21.9165 88.936C20.7218 88.808 19.6338 88.7013 18.6525 88.616C17.6711 88.5733 16.7111 88.552 15.7725 88.552C14.9191 88.552 14.0231 88.5733 13.0845 88.616C12.1885 88.7013 11.1858 88.808 10.0765 88.936C9.39379 88.9787 8.77512 88.744 8.22045 88.232C7.70845 87.7627 7.45245 87.1653 7.45245 86.44C7.45245 85.7147 7.70845 85.096 8.22045 84.584C8.77512 84.072 9.39379 83.8587 10.0765 83.944C10.8018 84.072 11.5485 84.136 12.3165 84.136H12.4445C12.7431 84.136 12.8925 83.9653 12.8925 83.624V46.312C12.8925 45.8853 12.7005 45.7147 12.3165 45.8C11.5485 45.8 10.8018 45.864 10.0765 45.992C9.39379 46.0347 8.77512 45.8213 8.22045 45.352C7.70845 44.84 7.45245 44.2213 7.45245 43.496C7.45245 42.7707 7.70845 42.152 8.22045 41.64C8.77512 41.128 9.39379 40.9147 10.0765 41C11.3138 41.128 12.4018 41.2347 13.3405 41.32C14.3218 41.3627 15.2818 41.384 16.2205 41.384C17.0738 41.384 17.9485 41.3627 18.8445 41.32C19.7831 41.2347 20.8071 41.128 21.9165 41C22.6418 40.9147 23.2605 41.128 23.7725 41.64C24.2845 42.152 24.5405 42.7707 24.5405 43.496C24.5405 44.2213 24.2845 44.84 23.7725 45.352C23.2605 45.8213 22.6418 46.0347 21.9165 45.992C21.3618 45.9067 20.7858 45.8427 20.1885 45.8C19.5911 45.7573 18.9938 45.7147 18.3965 45.672C18.0125 45.672 17.8205 45.864 17.8205 46.248V61.032C17.8205 61.416 18.0125 61.608 18.3965 61.608H42.0765C42.4605 61.608 42.6525 61.416 42.6525 61.032V46.248C42.6525 45.864 42.4605 45.672 42.0765 45.672C41.4791 45.7147 40.8818 45.7573 40.2845 45.8C39.6871 45.8427 39.1111 45.9067 38.5565 45.992C37.8738 46.0347 37.2551 45.8213 36.7005 45.352C36.1885 44.84 35.9325 44.2213 35.9325 43.496C35.9325 42.7707 36.1885 42.152 36.7005 41.64C37.2551 41.128 37.8738 40.9147 38.5565 41C39.7938 41.128 40.8818 41.2347 41.8205 41.32C42.8018 41.3627 43.7618 41.384 44.7005 41.384C45.5538 41.384 46.4285 41.3627 47.3245 41.32C48.2631 41.2347 49.2871 41.128 50.3965 41C51.1218 40.9147 51.7405 41.128 52.2525 41.64C52.7645 42.152 53.0205 42.7707 53.0205 43.496C53.0205 44.2213 52.7645 44.84 52.2525 45.352C51.7405 45.8213 51.1218 46.0347 50.3965 45.992C49.7138 45.864 48.9671 45.8 48.1565 45.8H48.0285C47.7298 45.8 47.5805 45.9707 47.5805 46.312V83.624C47.5805 83.9653 47.7511 84.136 48.0925 84.136C48.8605 84.136 49.6285 84.072 50.3965 83.944Z" fill="#BE4C13"/>
<path d="M0.199665 46.0068C0.453327 45.8467 1.543 46.7433 1.2192 46.8369C1.15974 46.8534 0.991689 46.4347 0.853962 46.3925C0.599633 46.3191 1.15754 47.0044 0.733844 46.7617C0.674788 46.7291 0.393889 46.3251 0.264118 46.1211L0.199665 46.0068ZM29.1782 15.1738C30.0234 15.1996 30.9461 15.2951 31.8471 15.3193C32.0413 15.324 31.8396 15.1517 32.3042 15.2675C32.3358 15.2758 32.4848 15.4053 32.6411 15.4463C32.7496 15.4747 33.0941 15.4542 33.2319 15.5088C33.3688 15.5645 33.0801 15.5963 33.2387 15.6845C33.3995 15.7746 33.7911 15.7726 33.8227 15.9336C33.8929 16.3135 33.7143 16.7618 33.5024 17.0595C33.4364 17.1543 33.238 17.0629 33.1831 17.125C33.076 17.2449 33.1517 17.3877 33.0268 17.498C32.9844 17.5337 32.6681 17.4079 32.6313 17.4463C32.4911 17.5938 32.4646 17.7521 32.4135 17.9131C32.3919 17.981 32.3668 18.0452 32.3276 18.1084C31.9033 18.7893 31.539 19.4216 31.1704 20.0439C30.9706 20.3802 30.7686 20.7115 30.5561 21.0371C30.3619 21.3363 29.9173 21.5804 29.8422 21.9463C29.8401 21.9569 29.8379 21.9676 29.8364 21.9785C29.8302 22.0236 30.1 22.1398 30.1196 22.1592C30.386 22.4497 29.8821 22.1303 29.7729 22.166C29.3406 22.3089 29.1398 22.6064 29.0747 22.9365C29.0476 23.0773 29.6185 23.263 29.2661 23.2109C29.2405 23.206 28.9924 23.0161 28.9448 23.0302C28.8374 23.0628 28.8019 23.2269 28.7465 23.2685C28.639 23.3475 28.6301 23.3666 28.5639 23.4638C28.514 23.5343 28.424 23.5885 28.3452 23.6513C28.2768 23.706 28.2169 23.7671 28.1997 23.8515C28.1924 23.8911 28.4863 24.0296 28.4985 24.1093C28.5108 24.1888 28.3986 24.3047 28.3061 24.3056C28.2137 24.3063 28.0196 24.1449 27.9663 24.1191C27.5251 23.9033 27.9696 24.4297 27.9721 24.4648C27.9542 24.9799 27.4217 25.0457 27.1733 25.3574C27.1404 25.3988 27.1092 25.4454 27.0795 25.4922C26.9421 25.7095 26.83 25.9687 26.6577 26.1406C26.4087 26.3866 26.0652 26.4975 25.8354 26.7656C25.8109 26.7935 26.1037 27.0351 26.0737 27.0703C25.963 27.2 25.8412 27.3217 25.7172 27.4189C25.5129 27.5768 25.3079 27.6681 25.0053 27.7343C24.9593 27.7435 24.7619 27.4723 24.7016 27.4677C24.632 27.4635 24.5483 27.4545 24.4653 27.4492C24.1139 27.426 23.765 27.4917 24.5229 28.3867C24.4232 28.4389 24.3122 28.5022 24.1635 28.5195C24.0773 28.5296 23.9783 28.5244 23.8618 28.4922C23.6571 28.4358 23.4625 28.1163 23.4887 28.3115C23.4943 28.3554 23.7486 28.5473 23.7397 28.5967C23.7017 28.8041 23.4928 28.8744 23.4868 29.1162C23.4873 29.1666 23.6974 29.3546 23.727 29.3974C23.7941 29.4964 23.7944 29.5377 23.7592 29.5459C23.67 29.5665 23.3542 29.3748 23.3129 29.3662C22.8793 29.2813 22.8594 29.5085 22.6889 29.664C22.6498 29.7002 22.9602 29.9256 22.9321 29.9707C22.8962 30.0236 22.8562 30.0736 22.812 30.1201C22.6654 30.274 22.4715 30.3891 22.229 30.4336C22.1584 30.4456 21.9831 30.1682 21.9379 30.1601C21.7456 30.1309 22.1295 30.6082 21.9487 30.5908C21.9114 30.5874 21.7421 30.3703 21.7172 30.3486C21.4086 30.0843 21.6378 30.4327 21.7143 30.5664C21.7284 30.5907 21.7378 30.6077 21.7378 30.6123C21.6798 30.9286 21.1163 30.4746 20.9936 30.6953C20.979 30.7235 21.2434 30.9628 21.186 31.0244C21.0792 31.1391 20.9631 31.2379 20.8442 31.3174C20.6286 31.4611 20.3813 31.5598 20.1128 31.6093C20.0189 31.6267 19.9208 31.6388 19.8217 31.6445C19.7392 31.6494 19.6282 31.4048 19.6059 31.3808C19.2543 31.0106 19.6051 31.5869 19.604 31.625C19.5775 31.7911 19.3703 31.6947 19.3315 31.8086C19.3109 31.8697 19.3396 31.9912 19.4721 32.2441C19.2677 32.3012 19.0949 32.4004 18.936 32.5136C18.7389 32.6541 18.5628 32.8149 18.3676 32.9433C18.1715 33.0726 17.9562 33.169 17.6704 33.1924C17.6021 33.1987 17.531 33.1997 17.4536 33.1982C17.4398 33.1967 17.2149 32.9547 17.1899 32.955C16.9048 32.9804 17.3011 33.3223 17.7202 33.8095C17.8314 33.9227 17.1783 33.5077 17.1235 33.4863C16.9387 33.3857 16.5678 33.0526 16.5278 33.0361C16.4754 33.0177 16.4684 33.0299 16.4926 33.0634C16.6129 33.2331 17.5153 33.9379 17.434 34.0429C17.4289 34.0451 17.2027 33.8427 17.1704 33.834C17.0707 33.8072 17.1397 33.9136 17.0327 33.8799C16.7843 33.8017 16.1447 33.3193 16.4194 33.7168C16.4546 33.7691 17.1933 34.3417 17.0639 34.4277C17.0121 34.4608 16.8495 34.6681 16.7553 34.6806C16.6619 34.6931 16.4727 34.453 16.4594 34.4482C16.0404 34.3146 15.9674 34.1492 15.478 33.8086C14.9948 33.4656 16.0257 34.4154 16.1128 34.5508C16.1984 34.6858 15.8692 34.5536 15.7661 34.4951C15.6622 34.4375 15.5535 34.2745 15.4878 34.249C15.0593 34.0809 15.9228 34.7992 16.0346 35.0019C16.2562 35.414 15.696 34.9965 15.4272 34.8711C15.3805 34.8497 15.3424 34.8372 15.3178 34.8398C15.2731 34.845 15.4563 34.9967 15.4477 35.0351C15.4094 35.1859 15.1352 34.9988 15.226 35.3174C15.2422 35.3689 15.5659 35.9169 15.2036 35.625C15.1517 35.5825 15.0036 35.3681 14.9243 35.3603C14.8056 35.3487 14.6583 35.4011 14.6479 35.5234C14.6412 35.6144 14.9729 35.8908 14.8247 35.8427C14.7587 35.8208 14.6485 35.5871 14.5385 35.5615C14.4293 35.5359 14.305 35.6536 14.2602 35.7011C14.2162 35.749 14.4462 35.9755 14.4575 35.997C14.5118 36.1141 14.5106 36.3164 14.5014 36.3232C14.3921 36.4243 14.2603 36.4907 14.1196 36.542C13.7194 36.6877 13.2552 36.7049 13.0112 37.0468C12.9853 37.0823 13.2014 37.3356 13.2055 37.3506C13.171 37.5521 12.7321 36.7494 12.4731 36.5615C12.8895 37.1148 12.7686 37.0484 12.7299 37.1689C12.7117 37.2277 12.8895 37.4311 12.9018 37.456C13.0789 37.8303 12.7315 37.4309 12.6586 37.3506C12.3904 37.0562 12.6187 37.4675 12.4389 37.2705C12.2606 37.0748 12.0958 36.714 12.02 36.7734C12.1409 36.9917 12.5746 37.4798 12.5747 37.6084C12.5747 37.6985 12.5501 37.7683 12.5083 37.8222C12.3241 38.0595 11.8157 37.9919 11.642 38.0595C11.4291 38.1428 11.396 38.2207 11.2387 38.2207C10.9546 38.2201 11.2985 38.5668 11.3051 38.83C11.3115 39.0934 10.6948 38.0812 10.5327 37.8838C10.3709 37.6865 10.5015 37.9138 10.4008 37.8134C10.3006 37.7132 10.2474 37.5406 10.1684 37.5312C10.089 37.5225 10.2124 37.9873 10.3471 38.2177C10.3993 38.307 10.4551 38.3952 10.5102 38.4785C10.7565 38.8506 10.9848 39.1343 10.7827 39.0683C10.766 39.0591 10.6138 38.792 10.5678 38.7861C10.2049 38.7476 9.96278 38.8992 9.61568 38.8877C9.56711 38.8841 9.393 38.5853 9.36275 38.581C9.04611 38.5373 9.45423 38.9623 9.73482 39.5595C9.2499 38.8453 8.88256 38.4589 8.7358 38.5605C8.6477 38.6213 8.88689 38.9132 8.99068 39.167C9.0222 39.2432 8.80782 39.0808 8.90279 39.2304C9.2148 39.7207 9.65843 40.199 9.36373 40.0976C9.34993 40.0921 9.17909 39.8249 9.14595 39.8252C9.10166 39.826 9.0815 39.848 9.07662 39.8838C9.05782 40.021 9.26264 40.3585 9.18404 40.4931C9.10732 40.6249 8.6792 40.4938 8.51412 40.5517C7.90407 39.7971 7.91637 40.0747 8.30025 40.6259C8.2022 40.6723 8.14134 40.7738 8.00338 40.7715C7.95596 40.7709 7.7875 40.5443 7.76412 40.5244C7.39702 40.215 7.78927 40.7288 7.79244 40.7656C7.78025 40.9616 7.6239 40.9776 7.51412 41.0459C7.42546 41.1019 7.36591 41.1888 7.4272 41.4199C7.43858 41.4453 7.8734 41.943 7.49361 41.6279C7.46723 41.6046 7.32282 41.3239 7.2192 41.3857C7.11456 41.4486 6.70783 41.3275 6.79244 41.6689C6.81292 41.7512 7.09793 42.2292 6.75533 41.9609C6.7089 41.924 6.59054 41.7709 6.50826 41.7002C6.24598 41.475 6.67223 42.0065 6.24849 41.6084C5.98381 41.3594 5.73901 41.1683 5.62642 41.1592C5.55894 41.1538 5.53884 41.2141 5.59029 41.3672C5.59757 41.3839 5.91576 41.8137 5.87154 41.8408C5.80002 41.8834 5.63853 41.8728 5.57564 41.9306C5.54565 41.9585 5.78218 42.1977 5.78072 42.207C5.69074 42.529 5.34775 42.4272 5.03853 42.5156C5.00777 42.5241 5.04371 42.6585 5.03463 42.748C5.0268 42.8247 4.98571 42.8682 4.84224 42.7705C4.50166 42.5386 3.54354 41.1951 3.59127 41.664C3.60987 41.8521 4.83316 43.5493 3.99849 42.8359C3.93145 43.0916 3.69677 43.1294 3.5024 43.2187C3.3604 43.284 3.23934 43.377 3.22115 43.6015C3.21901 43.6253 3.55024 44.1081 3.51509 44.1269C3.46179 44.1535 3.26364 43.9656 3.22017 43.9785C3.03356 44.0273 3.06026 44.3084 2.90865 44.3886C2.85121 44.4188 2.68713 44.1897 2.61861 44.2265C2.56806 44.2543 2.66483 44.4345 2.64009 44.498C2.63124 44.52 2.60729 44.5276 2.55709 44.5097C2.40954 44.456 1.85697 43.9308 1.7192 43.9326C2.20302 44.5025 2.13896 44.5376 2.17232 44.7695C2.17902 44.8143 2.3689 44.9937 2.38131 45.0254C2.43406 45.1571 2.26017 45.0229 2.32271 45.1621C2.33865 45.1966 2.50514 45.3887 2.52681 45.4267C2.71784 45.7576 2.24872 45.4054 2.16646 45.3447C1.855 45.1133 2.04618 45.3871 1.90084 45.3164C1.75502 45.2459 1.70029 45.0447 1.58541 45.0254C1.42373 44.9986 1.31686 45.0644 1.22701 45.1396C1.18454 45.1752 1.14612 45.2134 1.10689 45.2441C1.05952 45.2836 1.31982 45.5057 1.31881 45.5175C1.28452 45.666 0.942999 45.4884 1.35494 46.0322C0.0921156 44.8103 1.41524 46.2089 1.04537 46.0752C1.01508 46.0634 0.431339 45.4765 0.387165 45.3486C0.344402 45.2214 0.584033 45.3514 0.511188 45.1601C0.493637 45.1154 0.0415967 44.4728 0.0209538 44.4277C-0.143152 44.0785 0.708992 44.98 0.759235 45.0263C1.30459 45.5217 0.835196 44.8216 0.820759 44.7529C0.815114 44.726 0.811562 44.7015 0.810016 44.6797C0.794739 44.4566 0.970732 44.4721 0.944782 44.2646C0.927151 44.1166 0.395524 43.5022 0.463337 43.4756C0.689679 43.3864 1.48965 44.1917 1.00631 43.3115C0.903557 43.1234 0.289512 42.4795 0.86861 42.9023C0.905418 42.9287 1.4122 43.3356 1.20259 42.9834C1.17569 42.9385 1.0085 42.7435 1.0024 42.7187C0.987573 42.6463 1.01693 42.6333 1.0522 42.6279C1.09342 42.6216 1.14359 42.6251 1.144 42.5556C1.14435 42.4261 1.12691 42.2476 1.25631 42.2529C1.33435 42.2559 1.70071 42.5792 1.79732 42.6523C2.07412 42.8635 1.78111 42.383 2.08052 42.6679C2.38202 42.9556 2.7133 43.4989 2.97994 43.625C2.55357 43.1049 2.12024 42.5669 1.69381 42.042C1.87354 41.9168 2.12732 41.8879 2.32076 41.7851C2.37298 41.7574 2.42046 41.7235 2.46138 41.6816C2.48474 41.6568 2.23022 41.4015 2.24752 41.3662C2.3295 41.2244 2.59694 41.3383 2.65377 41.1592C2.6968 41.0191 2.55604 40.6382 2.59224 40.4834C3.14105 41.0275 3.12032 40.7073 3.269 40.6748C3.28804 40.6705 3.31817 40.6898 3.35103 40.7168C3.40792 40.7635 3.47546 40.8345 3.519 40.8535C3.77554 40.9628 3.29498 40.4776 3.25338 40.373C3.07616 39.928 4.07046 41.1018 4.18209 40.959C4.18519 40.9464 3.74824 40.2499 3.72701 40.2011C3.58819 39.8826 3.92375 40.4095 4.01021 40.416C4.1679 40.4281 4.35489 40.5255 4.30025 40.2568C4.28313 40.1764 4.02248 39.7294 4.33541 39.9814C4.37674 40.0147 4.54857 40.2245 4.5649 40.2314C4.80521 40.323 4.43452 39.8602 4.24263 39.5556C4.21056 39.5047 4.18382 39.4577 4.16548 39.4189C4.03757 39.1491 4.51468 39.5122 4.64595 39.623C4.98451 39.9097 4.73076 39.7982 4.75631 39.833C5.06019 40.2471 5.07238 40.1203 5.15377 40.1064C5.71152 40.7284 5.75387 40.6238 5.2358 40.0888C5.17957 40.0312 5.18943 40.1256 5.15377 40.1064C4.66073 39.4486 4.66854 39.3021 5.26509 39.7968C5.54462 40.0287 5.78457 40.3756 5.80904 40.1484C5.81892 40.0451 5.41288 39.6378 5.35689 39.4775C5.22743 39.1129 5.73628 39.3752 5.7983 39.2021V39.1992C5.81492 39.1303 5.5641 38.947 5.57466 38.8945C5.60357 38.7515 5.84148 38.8548 5.85201 38.6836C5.8528 38.6677 5.6116 38.4413 5.63716 38.4121C5.83218 38.188 6.18021 38.1697 6.41841 37.9824C6.5317 37.8928 6.6215 37.5879 6.76119 37.5254C6.88341 37.4693 7.08308 37.4897 7.26119 37.497C7.4353 37.5038 7.5904 37.4972 7.64009 37.3886C7.70641 37.2461 7.48679 36.9995 7.40181 36.7832C7.23842 36.3624 7.86363 36.8724 7.95552 36.955C7.95606 36.9637 7.9116 37.0921 8.05806 37.1894C8.29084 37.4489 7.9662 36.973 7.95552 36.955C8.01673 37.0065 8.24999 36.9302 8.25142 36.8525C8.25194 36.8098 8.05821 36.5634 8.06197 36.5459C8.15262 36.1503 8.35279 35.9073 8.67037 35.8379C8.68245 35.8352 8.69505 35.8332 8.70748 35.831C8.71559 35.8331 8.90865 36.1247 8.92525 36.1259C9.16156 36.1508 9.01191 35.734 8.98873 35.4414C8.96529 35.1493 9.10904 35.1533 9.52095 35.5976C9.56852 35.4733 9.84769 35.6025 10.0131 35.6836C10.1787 35.7646 9.80144 35.1981 9.80025 35.1826C9.75628 34.6896 10.0937 34.929 10.3335 34.8349C10.351 34.8282 10.369 34.8175 10.3872 34.8037C10.4876 34.7269 10.5908 34.5555 10.6411 34.4424C10.6874 34.3357 10.8296 34.43 10.8442 34.2939C10.8436 34.2728 10.6604 34.0403 10.6547 34.0263C10.5244 33.6739 10.9184 34.3009 11.0131 34.3965C11.3565 34.7415 11.5466 34.9202 11.519 34.6601C11.5134 34.6 10.9526 33.6895 10.9575 33.6084C10.9661 33.5048 11.1724 33.8263 11.1753 33.709C11.1754 33.6988 11.0341 33.5112 11.0756 33.4931C11.2362 33.4206 11.4449 33.3909 11.5961 33.2959C11.6248 33.2779 11.6516 33.2577 11.6753 33.2343C11.696 33.2151 11.4365 32.9425 11.4624 32.9101C11.5836 32.7586 11.7485 32.6432 11.9975 32.6631C12.0597 32.6688 12.2069 32.8879 12.2641 32.9414C12.6124 33.2625 12.2368 32.6849 12.2378 32.667C12.2662 32.2523 12.7512 32.4596 12.8686 32.1767C12.8803 32.1476 12.8881 32.1136 12.8901 32.0732C12.8926 32.047 12.469 31.437 12.9506 31.8437C12.9843 31.8734 13.4788 32.2816 13.2026 31.9375C13.185 31.9162 12.9253 31.709 12.9907 31.6894C13.0578 31.669 12.9626 31.4493 13.2827 31.6386C13.3821 31.7 13.899 32.0854 13.5678 31.6894C13.544 31.652 12.7443 30.8282 13.3696 31.3203C13.4739 31.4018 14.1116 31.952 13.8393 31.6054C13.7854 31.5391 13.6215 31.4416 13.559 31.334C13.4611 31.1701 13.6968 31.2394 13.4585 30.9355C13.4162 30.881 13.005 30.4801 13.3833 30.6992C13.432 30.7272 13.5842 30.8563 13.6616 30.8994C13.6801 30.9072 13.6958 30.9097 13.7065 30.9052C13.9784 30.7932 14.1247 30.3463 14.4282 30.3154C14.5428 30.2958 14.8361 30.6463 14.9868 30.6679C15.0568 30.6786 15.1398 30.6756 15.1997 30.6484C15.2665 30.6184 15.3042 30.5564 15.2631 30.4433C15.1856 30.2301 14.6175 29.7677 14.6821 29.6289C14.7941 29.3905 14.9745 29.2425 15.1753 29.1367C15.4684 28.9821 15.8053 28.917 16.0688 28.7744C16.0817 28.7674 16.0944 28.7603 16.1069 28.7529C16.173 28.7142 15.9655 28.5455 16.0522 28.4736C16.2022 28.3485 16.3744 28.1479 16.5756 28C16.8016 27.8338 17.063 27.7348 17.3725 27.874C17.4939 27.9291 17.5796 28.0008 17.643 28.0781C17.6719 28.1132 17.6966 28.1495 17.7182 28.1855C17.8218 28.3585 17.8586 28.5297 17.9897 28.5742C18.0024 28.5785 18.0162 28.5811 18.0307 28.583C18.1565 28.5988 17.7604 27.8485 17.7631 27.8134C17.7917 27.4858 18.0863 27.6608 18.1997 27.5166L18.2153 27.4863C18.2278 27.4483 18.0063 27.1863 18.018 27.1572C18.0567 27.0569 18.204 27.1364 18.2368 27.0761C18.2509 27.048 18.089 26.8453 18.1206 26.8447C18.1992 26.8408 18.3223 26.8831 18.5366 27.0234C18.5566 27.0357 18.7244 27.3175 18.7797 27.289C18.8113 27.2715 18.8642 27.2736 18.9155 27.2705C19.0083 27.265 19.0991 27.2425 19.0512 27.0703C19.0289 26.9897 18.6309 26.5449 18.9633 26.7998C19.0328 26.8529 19.4999 27.3975 19.1508 26.8779C19.095 26.7897 18.634 26.0781 19.0581 26.416C19.1699 26.5052 19.6143 26.892 19.5854 26.7929C19.5804 26.7798 19.3931 26.6135 19.352 26.54C19.3465 26.5302 19.3436 26.5215 19.3442 26.5156C19.3683 26.3467 19.4954 26.2689 19.5268 26.0947C19.5339 26.0476 19.259 25.8549 19.2778 25.7929C19.318 25.6588 19.4507 25.5775 19.5981 25.5254C19.638 25.5113 19.679 25.4992 19.7192 25.4892C19.7892 25.4724 19.9574 25.6921 19.9829 25.7109C20.3825 25.9954 19.9427 25.5127 19.9292 25.4668C19.8669 25.2005 20.169 25.3284 20.2094 25.1689C20.2211 25.1253 19.9754 24.9294 19.9604 24.9043C19.8196 24.6569 20.1837 25.0877 20.2651 25.0937C20.3704 25.1007 20.4479 25.0755 20.5083 25.0322C20.5786 24.9818 20.6255 24.9068 20.6674 24.832C20.6955 24.7805 20.3906 24.5759 20.4184 24.5322C20.5552 24.3148 20.7554 24.1301 21.0307 24.0254C21.0868 24.0041 21.146 23.9859 21.2085 23.9717C21.2784 23.9563 21.4485 24.1822 21.5024 24.2187C21.8763 24.4767 21.5405 23.9544 21.5219 23.8906C21.4349 23.6057 21.6503 23.7415 21.7104 23.6211C21.7783 23.4851 21.863 23.3634 21.9536 23.2588C22.1804 22.9732 22.412 22.8959 22.6713 22.7285C22.8715 22.6015 23.0816 22.501 23.2729 22.3828C23.4764 22.2567 23.6601 22.1086 23.7836 21.8828C23.7991 21.8552 23.4846 21.6605 23.4907 21.6328C23.6134 21.3242 23.9015 21.1301 24.018 20.8115C24.0245 20.7937 24.0304 20.7753 24.0356 20.7568C24.0424 20.728 23.7277 20.5709 23.7299 20.5195C23.735 20.4134 23.8135 20.3256 23.9585 20.3056C24.0288 20.2955 24.2529 20.508 24.3188 20.4941C24.4729 20.4613 24.5572 20.3722 24.5669 20.2461C24.5697 20.1922 24.2235 20.0685 24.2514 20.0136C24.386 19.7364 24.4975 19.4566 24.7856 19.2636C24.8908 19.1931 25.0203 19.1332 25.1831 19.0879C25.2273 19.0781 25.8906 19.3826 25.7944 19.2617C25.6145 19.1666 25.4002 19.0597 25.2065 18.9609C25.3226 18.547 25.5801 18.2112 25.81 17.8593C25.9137 17.7004 26.0109 17.5414 26.0854 17.372C26.0953 17.3495 25.717 17.2566 25.7329 17.2129C25.8309 16.9572 25.805 16.6893 26.2485 16.541C26.292 16.5258 26.946 16.7248 26.8686 16.6172C26.8571 16.6013 26.8183 16.5062 26.7319 16.4345C26.7116 16.4178 26.6882 16.4023 26.6626 16.3896C26.6419 16.3802 26.3274 16.3205 26.3276 16.2822C26.3336 16.0628 26.4493 15.8737 26.6753 15.709C26.7123 15.6825 27.0413 15.7739 27.0708 15.7549C27.2783 15.6089 27.0451 15.4003 27.3647 15.2793C27.5802 15.192 28.1627 15.2743 28.7436 15.2461C28.8254 15.2411 28.8431 15.1628 29.1782 15.1738ZM1.48091 44.3584C1.29899 44.2125 1.38533 44.489 1.61177 44.6699C1.7934 44.8157 1.70651 44.5402 1.48091 44.3584ZM2.20552 43.6074C2.57189 43.8423 1.49785 42.5307 1.60982 42.8828C1.616 42.9029 2.18414 43.5938 2.20552 43.6074ZM2.48287 41.9814C2.21988 41.7802 2.71819 42.4772 2.84224 42.5761C2.99603 42.6992 3.03569 42.691 3.00826 42.6181C2.96051 42.4915 2.71082 42.17 2.50826 42.0019C2.49912 41.9943 2.49065 41.9874 2.48287 41.9814ZM8.49556 40.5332C8.68291 40.8735 8.65223 40.9576 8.30123 40.6259C8.37034 40.6012 8.4266 40.5594 8.49556 40.5332ZM11.6821 37.1679C11.4946 36.8358 11.3668 36.8876 11.6157 37.1953C11.6261 37.2073 11.6896 37.1817 11.6821 37.1679ZM14.9038 34.3349C14.6782 34.102 14.6935 34.2135 14.9145 34.417C14.9277 34.4291 14.9739 34.4074 14.9038 34.3349ZM17.4721 32.7705C17.1874 32.3725 16.9565 32.3889 17.1118 32.6162C17.1551 32.6797 17.2288 32.7593 17.3383 32.8515C17.3396 32.8525 17.3406 32.8539 17.3422 32.8545C17.3748 32.8666 17.489 32.7947 17.4721 32.7705ZM28.9008 15.5234C28.5262 15.455 28.4843 15.5645 28.8794 15.584C28.8953 15.5836 28.9163 15.5263 28.9008 15.5234Z" fill="#D81212"/>
<path d="M32.0509 16.387C32.0755 16.4302 32.1164 16.47 32.1281 16.5403C32.1501 16.6637 32.1924 16.7929 32.2492 16.9232C32.3995 17.265 32.6433 17.6103 32.924 17.9642C33.1263 18.2192 33.3491 18.4803 33.5812 18.7611C33.6634 18.8603 33.7316 18.9942 33.8019 19.1321C33.9243 19.3713 34.0522 19.6228 34.2892 19.7464C34.3331 19.769 34.5263 19.544 34.5499 19.5335C34.9182 19.3813 34.4554 19.757 34.4611 19.8792C34.4751 20.1504 34.5581 20.3741 34.6847 20.5648C34.7846 20.715 34.9129 20.8464 35.0558 20.9661C35.195 21.0844 35.5816 20.6096 35.4113 20.9486C35.3979 20.9717 35.1119 21.1032 35.1105 21.1624C35.1059 21.2913 35.2661 21.4523 35.2941 21.5599C35.3393 21.753 35.3571 21.7849 35.4259 21.9495C35.4835 22.0951 35.4759 22.2756 35.4904 22.4183L35.5011 22.4866C35.5085 22.507 35.5202 22.5252 35.5382 22.5394C35.5615 22.5551 35.8565 22.427 35.9191 22.4398C35.9815 22.454 35.9788 22.5206 35.9201 22.5745C35.8606 22.6281 35.6245 22.7162 35.5724 22.7435C35.1434 22.9836 35.8135 22.8225 35.8322 22.8216C35.8868 22.8391 35.9282 22.8616 35.9601 22.888C36.143 23.036 36.0151 23.3639 36.1603 23.5716L36.1613 23.5726C36.29 23.7534 36.5384 23.866 36.6652 24.0423C36.6792 24.0621 36.6921 24.083 36.7042 24.1038C36.8221 24.3061 36.8638 24.5574 37.0539 24.7112C37.0755 24.7291 37.3195 24.442 37.3468 24.4612C37.3665 24.4767 37.3862 24.4921 37.4054 24.5081C37.6073 24.6754 37.7799 24.8726 37.8976 25.1478C37.928 25.2191 37.9549 25.2964 37.9777 25.3792C37.9889 25.4233 37.7407 25.6462 37.7404 25.7054C37.7434 25.9728 37.6831 26.4554 38.0744 26.2523C38.2119 26.1858 38.4005 26.0396 38.6613 25.7777C38.7801 25.9424 38.9471 26.1591 38.8888 26.4954C38.8494 26.7104 38.5302 26.9079 38.7326 26.8821C38.7786 26.8755 38.9588 26.6167 39.0119 26.6263C39.1794 26.6603 39.2703 26.7935 39.4093 26.8636C39.4555 26.8869 39.5072 26.9034 39.5695 26.9075C39.6211 26.9101 39.812 26.7008 39.8556 26.6722C40.2135 26.4455 39.8428 27.04 39.8292 27.097C39.7426 27.5354 39.9687 27.5613 40.1183 27.7337C40.1526 27.7737 40.3875 27.4689 40.4308 27.4984C40.4853 27.537 40.5362 27.5796 40.5822 27.6263C40.7226 27.7689 40.8194 27.9495 40.8507 28.1732C40.8593 28.2399 40.5846 28.4202 40.5763 28.4632C40.5428 28.6494 41.0146 28.2586 40.9904 28.429C40.9853 28.4647 40.7709 28.6408 40.7511 28.6644C40.4412 29.0334 40.9806 28.6227 41.004 28.6243C41.1389 28.6342 41.1216 28.7594 41.0832 28.9007C41.0375 29.0682 40.9629 29.2584 41.0773 29.303C41.103 29.3122 41.3248 29.0354 41.381 29.0755C41.6248 29.2477 41.8119 29.4737 41.9435 29.7445C42.015 29.8914 42.0703 30.052 42.1105 30.2259C42.1287 30.3024 41.9144 30.4621 41.8947 30.4886C41.5989 30.9054 42.0928 30.4441 42.1281 30.4359C42.3735 30.4118 42.1211 30.9485 42.7326 30.4056C42.749 30.4377 42.7674 30.468 42.7863 30.4974C43.008 30.83 43.2984 30.9555 43.6007 31.1937C43.8658 31.3946 44.1254 31.6862 44.2208 32.1185C44.2222 32.1337 44.0179 32.3921 44.0236 32.4183C44.0991 32.6662 44.2976 32.3858 44.6642 32.0423C44.7328 31.9781 44.8079 31.9121 44.8888 31.847C45.0193 31.7443 44.6629 32.4375 44.6369 32.4886C44.5447 32.6784 44.2147 33.0509 44.1994 33.0931C44.095 33.4099 45.0742 32.083 45.1984 32.1771C45.2004 32.1822 44.9997 32.4108 44.9914 32.4427C44.9651 32.5419 45.0694 32.4703 45.0363 32.5765C44.9587 32.8222 44.4882 33.4707 44.879 33.1859C44.9298 33.1489 45.4898 32.3989 45.5695 32.5189C45.5965 32.56 45.7417 32.6655 45.7931 32.7513C45.8023 32.7666 45.8087 32.7817 45.8107 32.7952C45.823 32.8847 45.5964 33.0877 45.5919 33.1009C45.4751 33.5209 45.3185 33.6057 45.008 34.1146C44.697 34.6201 45.5761 33.5309 45.7052 33.4329C45.8334 33.3366 45.7205 33.6714 45.6701 33.7786C45.6199 33.8861 45.4662 34.0073 45.4455 34.0745C45.3108 34.5137 45.9591 33.5971 46.1505 33.4681C46.6056 33.1645 46.0128 34.0256 46.0431 34.1878C46.0517 34.2318 46.185 34.0358 46.2238 34.0394C46.2821 34.0469 46.2943 34.0955 46.3048 34.1448C46.3215 34.2229 46.3341 34.3017 46.5207 34.2239C46.5707 34.2023 47.0735 33.8158 46.8234 34.2073C46.7866 34.2639 46.5921 34.4362 46.5929 34.515C46.5941 34.6331 46.6619 34.7713 46.7833 34.765C46.8732 34.7602 47.1074 34.3956 47.0773 34.5472C47.0635 34.6148 46.8462 34.755 46.8341 34.8665C46.8218 34.9773 46.9529 35.0831 47.006 35.1204C47.0588 35.1571 47.2523 34.8968 47.2716 34.8831C47.3097 34.8582 47.3593 34.8386 47.4074 34.8236C47.4943 34.7963 47.5774 34.7848 47.5841 34.7894C47.8986 35.0415 47.9795 35.5062 48.1974 35.8284C48.2779 35.9476 48.3782 36.0481 48.5158 36.1107C48.5554 36.1292 48.77 35.8614 48.7785 35.8616C48.9793 35.8551 48.2752 36.4387 48.1388 36.7278C48.6035 36.2135 48.561 36.3457 48.6857 36.3587C48.7463 36.364 48.9107 36.1512 48.9328 36.1341C49.2633 35.8854 48.9395 36.3037 48.8751 36.3909C48.6387 36.7121 48.9956 36.4055 48.838 36.6204C48.6819 36.8343 48.362 37.068 48.4357 37.1302C48.6248 36.9672 49.0146 36.446 49.1398 36.4183C49.2212 36.4005 49.2894 36.4079 49.3468 36.432C49.5447 36.5236 49.6224 36.7836 49.6779 36.9915C49.707 37.0998 49.731 37.1954 49.7648 37.2493C49.8623 37.4046 49.9348 37.4422 49.9738 37.5345C49.9821 37.5543 49.9891 37.5771 49.9943 37.6038C50.0481 37.8759 50.3165 37.4678 50.5636 37.3958C50.8086 37.3216 49.9702 38.1583 49.8146 38.3607C49.6604 38.5636 49.8516 38.3845 49.7785 38.5052C49.7053 38.6269 49.5476 38.7188 49.5587 38.7991C49.5615 38.8174 49.5863 38.8203 49.6242 38.8109C49.7539 38.7795 50.0383 38.6055 50.1828 38.4583C50.5787 38.0547 50.9082 37.5597 50.882 37.8079C50.8806 37.8227 50.6624 38.0466 50.6671 38.0911C50.6812 38.2023 50.7129 38.2963 50.7521 38.3821C50.8353 38.5629 50.9462 38.7053 51.0226 38.9153C51.0387 38.9587 50.839 39.2431 50.8478 39.2728C50.8491 39.2767 50.8504 39.2808 50.8517 39.2845C50.9622 39.569 51.1742 39.0249 51.504 38.473C51.1477 39.254 50.9698 39.7703 51.2501 39.8577C51.371 39.8895 51.4167 39.6498 51.4845 39.4261C51.501 39.3696 51.5188 39.3137 51.5402 39.263C51.5734 39.1869 51.6063 39.4541 51.6486 39.2825C51.7947 38.7209 51.8295 38.0651 52.007 38.3646C52.0131 38.3797 51.9192 38.6799 51.9455 38.7073C51.9962 38.7559 52.0452 38.742 52.0968 38.6966C52.221 38.5869 52.3661 38.2937 52.5529 38.2972C52.615 38.2986 52.6793 38.3432 52.7404 38.4085C52.8832 38.559 52.9982 38.819 53.1095 38.9222C53.0635 39.0134 53.0254 39.0943 52.9943 39.1644C52.7326 39.7601 52.9484 39.601 53.3146 39.1224C53.3785 39.1789 53.4579 39.219 53.5226 39.2777C53.5628 39.3142 53.5974 39.3582 53.6173 39.4163C53.635 39.468 53.4473 39.6761 53.4328 39.7054C53.2096 40.132 53.6425 39.6458 53.6847 39.6468C53.7581 39.6465 53.8144 39.6677 53.8595 39.6995C54.0051 39.8018 54.0358 40.0271 54.2072 40.0843C54.2582 40.0953 54.332 40.0902 54.4328 40.053C54.4565 40.0435 54.95 39.5988 54.6251 39.9661C54.6043 39.9934 54.3342 40.1558 54.3839 40.2405C54.4252 40.3187 54.3365 40.7288 54.6564 40.5921C54.7086 40.5694 54.9237 40.3953 54.9816 40.4036C55.0082 40.4081 55.0024 40.4529 54.9347 40.5716C54.9052 40.623 54.7746 40.7654 54.7179 40.8577C54.5403 41.1544 54.985 40.639 54.6681 41.1253C54.3512 41.6126 54.1907 42.0383 54.5665 41.8206C54.5781 41.8148 54.9316 41.4052 54.9669 41.4417C55.0155 41.4928 55.0441 41.6197 55.0978 41.682C55.1058 41.6912 55.114 41.6995 55.1232 41.7054C55.1578 41.7269 55.3287 41.4368 55.338 41.4359C55.6627 41.4333 55.6517 41.7842 55.8312 42.0501C55.8429 42.0678 55.8988 42.0393 55.9601 42.012C56.0694 41.9638 56.1948 41.9187 56.133 42.1507C56.0303 42.5493 55.087 43.9054 55.5363 43.7122C55.7234 43.6384 56.8324 41.8982 56.505 42.8958C56.503 42.9022 56.5013 42.9088 56.4992 42.9153C56.8807 42.8628 56.9919 43.3107 57.3312 43.3392C57.3946 43.3439 57.4667 43.3339 57.5451 43.2991C57.5682 43.2901 57.8295 42.7678 57.8595 42.7864C57.9044 42.8172 57.8413 43.0829 57.8742 43.1146C58.0121 43.2486 58.2187 43.078 58.3634 43.138C58.3657 43.1389 58.368 43.1399 58.3703 43.1409C58.4272 43.1663 58.3482 43.437 58.423 43.4671C58.5035 43.4963 58.6019 43.1363 58.6789 43.3245C58.7237 43.4313 58.7476 43.8806 58.8097 44.1429C58.8306 44.2328 58.8553 44.3014 58.8839 44.3255C58.9275 43.579 58.9995 43.5979 59.132 43.4046C59.1572 43.3672 59.1404 43.1078 59.1525 43.0755C59.2018 42.9429 59.239 43.1591 59.2873 43.015C59.299 42.9803 59.3062 42.7255 59.3165 42.682C59.3506 42.5366 59.389 42.5353 59.424 42.5941C59.4803 42.6863 59.5243 42.9268 59.5353 42.9886C59.5998 43.3718 59.6594 43.0437 59.715 43.1986C59.7649 43.3534 59.6558 43.5303 59.7169 43.6273C59.7652 43.7082 59.8175 43.7545 59.8693 43.7845C59.9451 43.8283 60.0199 43.8383 60.0695 43.8685C60.1021 43.8873 60.2289 43.5713 60.2365 43.5657C60.3292 43.5544 60.3333 43.6831 60.4035 43.6868C60.4554 43.6915 60.5533 43.6441 60.7931 43.4954C59.465 44.6499 60.9873 43.4455 60.8205 43.8821C60.8028 43.9172 60.0332 44.2251 59.9181 44.2659C59.9109 44.2693 59.9042 44.2691 59.8996 44.2708C59.9102 44.2526 59.919 44.241 59.921 44.2357C60.2039 43.6882 59.939 44.1016 59.8517 44.2923C59.7509 44.3662 59.3336 44.8424 59.3126 44.9417C59.311 44.9451 59.3094 44.9478 59.3087 44.9495C59.2666 45.1417 59.4001 44.9971 59.5539 44.7894C59.5062 45.0617 59.4663 45.5313 59.4396 45.5159C59.4018 45.4897 59.3672 45.373 59.3322 45.2464C59.2454 44.9421 59.1795 44.5797 58.9953 45.2669C58.9358 45.4741 58.9562 46.3653 58.7824 45.6575C58.7782 45.6403 58.758 45.5337 58.7287 45.432C58.6812 45.2692 58.6136 45.1179 58.5314 45.3597C58.5144 45.4093 58.4902 45.6669 58.4708 45.6868C58.343 45.8153 58.2614 45.5985 58.0968 45.6722C57.9879 45.7195 57.8684 45.7824 57.7736 45.7894C57.7255 45.794 57.6766 45.7813 57.633 45.7386C57.5556 45.6651 57.5697 45.1676 57.5636 45.0423C57.554 44.6849 57.2638 45.1752 57.341 44.7659C57.4245 44.3565 57.7281 43.7971 57.6915 43.5003C57.458 44.131 57.2089 44.7753 56.966 45.4066C56.8155 45.3402 56.6878 45.2378 56.5675 45.1351C56.4133 45.003 56.2713 44.8702 56.0998 44.806C56.061 44.7927 55.941 45.1362 55.8947 45.1292C55.7102 45.0996 55.6779 44.8243 55.4933 44.8001C55.4837 44.7989 55.4735 44.799 55.463 44.7991C55.2974 44.8026 54.9723 45.0602 54.7892 45.0667C55.0887 44.352 54.7712 44.4691 54.6691 44.3245C54.6341 44.2745 54.7444 44.1014 54.7462 44.0237C54.7464 44.0094 54.7455 43.9967 54.7443 43.9866C54.7214 43.796 54.4466 44.3528 54.3595 44.4183C53.9626 44.7083 54.774 43.401 54.59 43.3265C54.5691 43.3371 54.0187 43.9346 53.9738 43.9652C53.6884 44.1747 54.1161 43.7167 54.089 43.6253C54.0504 43.4924 54.0658 43.3299 53.9396 43.3236C53.9074 43.3219 53.8663 43.3311 53.8117 43.3519C53.7333 43.3842 53.3413 43.7302 53.5001 43.3568C53.5211 43.3082 53.6861 43.0959 53.6896 43.0755C53.7124 42.7625 53.1953 43.4378 52.9347 43.6019C52.6727 43.7645 52.9055 43.1978 52.9894 43.0472C53.1986 42.6534 53.1579 42.9415 53.1876 42.9114C53.5473 42.5442 53.4076 42.5441 53.3673 42.4554C53.6554 42.0934 53.7482 41.922 53.6984 41.9427C53.6577 41.9604 53.5229 42.1008 53.3253 42.3665C53.3126 42.3838 53.3103 42.3953 53.3136 42.4036C53.3231 42.4266 53.3753 42.4258 53.3673 42.4554C53.2087 42.6159 53.0793 42.7314 52.9835 42.8001C52.7303 42.9814 52.705 42.8321 52.9884 42.3411C53.1728 42.0241 53.5026 41.7596 53.2462 41.7318C53.1285 41.7159 52.764 42.1626 52.5812 42.2044C52.2875 42.2668 52.2545 41.967 52.2335 41.7767C52.2443 41.7177 52.2516 41.6794 52.2257 41.6898C52.1946 41.705 51.9754 41.9274 51.9503 41.9476C51.9043 41.988 51.9573 41.8951 51.9552 41.8675C51.954 41.8564 51.9436 41.8546 51.9152 41.8753C51.9063 41.8826 51.7023 42.1362 51.6925 42.139C51.6678 42.1398 51.6696 42.1057 51.671 42.0599C51.6736 41.9997 51.6738 41.9187 51.632 41.8909L51.629 41.889C51.5971 41.8711 51.4938 41.9589 51.4445 41.9661C51.4337 41.9674 51.4248 41.9651 51.4191 41.9564C51.3931 41.9172 51.3839 41.7894 51.3585 41.6722C51.323 41.5371 51.2999 41.4232 51.2296 41.4739C51.214 41.4843 51.1987 41.5028 51.1847 41.5267C51.0096 41.6267 50.9849 41.8853 50.8039 42.0374C50.2089 42.3483 50.0544 41.4111 50.0998 41.2972C50.106 41.295 50.3413 41.3149 50.299 41.1136C50.3839 40.7691 50.1102 41.2871 50.0998 41.2972C50.0974 41.2437 49.9658 41.127 49.8585 41.0491C49.7902 41.0005 49.7264 40.9665 49.6906 40.973C49.6393 40.982 49.4943 41.26 49.4699 41.2591C49.1655 41.2429 48.9143 41.1762 48.714 41.0657C48.5318 40.9651 48.3921 40.8272 48.296 40.6546C48.295 40.6454 48.5267 40.3876 48.5236 40.3675C48.5015 40.2792 48.4435 40.2488 48.3644 40.2493C48.2117 40.2506 47.9768 40.3661 47.7794 40.4124C47.4965 40.4789 47.4437 40.3419 47.7306 39.9027C47.7468 39.8779 47.7641 39.8522 47.7824 39.8255C47.6411 39.7956 47.7014 39.4861 47.7462 39.305C47.7904 39.1234 47.3066 39.6011 47.2912 39.6048C47.206 39.6272 47.1402 39.6337 47.091 39.6292C46.8607 39.6082 46.9501 39.3127 46.8742 39.1712C46.865 39.155 46.8512 39.1392 46.8332 39.1253C46.731 39.0433 46.5425 38.9724 46.4201 38.9407C46.3012 38.9112 46.3635 38.7512 46.2228 38.7581C46.2039 38.759 46.0052 38.9887 45.9943 38.9945C45.6679 39.1832 46.2119 38.6818 46.2873 38.5696C46.5583 38.1643 46.6976 37.9436 46.4425 38.014C46.3827 38.0311 45.5874 38.7391 45.5011 38.7474C45.4737 38.749 45.471 38.7338 45.4806 38.7103C45.5093 38.6406 45.6439 38.4989 45.5539 38.5091C45.5397 38.5149 45.3831 38.6815 45.3556 38.6419C45.2241 38.456 45.1426 38.191 44.9601 38.053C44.935 38.0352 44.7105 38.3334 44.671 38.3109C44.5693 38.2496 44.4755 38.1718 44.4074 38.0696C44.3526 37.9876 44.3142 37.8896 44.3009 37.7718C44.2948 37.7058 44.4946 37.5336 44.5392 37.4691C44.8061 37.0794 44.2823 37.5152 44.258 37.5189C43.9138 37.5172 43.9141 37.2018 43.7814 37.0052C43.7252 36.9219 43.6456 36.86 43.507 36.8558C43.4798 36.855 42.8899 37.314 43.2482 36.7943C43.2723 36.7599 43.6379 36.2266 43.3087 36.5237C43.2883 36.5425 43.1058 36.8209 43.0734 36.7493C43.0401 36.6778 42.8125 36.7749 42.9699 36.4339C43.0105 36.3461 43.2523 35.9683 43.1232 36.0159C43.0943 36.0268 43.0468 36.0595 42.9748 36.1214C42.943 36.1463 42.1146 36.9557 42.5753 36.305C42.6516 36.1975 43.1841 35.5432 42.8292 35.8138C42.7611 35.8668 42.6737 36.0381 42.5587 36.097C42.3827 36.1886 42.4361 35.9436 42.129 36.182C42.0742 36.2237 41.6719 36.637 41.8888 36.2562C41.9228 36.1962 42.1063 35.9814 42.1007 35.9378C42.0875 35.8317 42.0192 35.7957 41.9562 35.7542C41.896 35.7146 41.8395 35.6694 41.8371 35.5511C41.8348 35.4657 42.1188 35.1087 42.1437 34.9769C42.1688 34.8453 42.1404 34.6835 41.9787 34.8255C41.8179 34.9687 41.4591 35.601 41.3664 35.6087C41.2084 35.6248 41.1045 35.5482 40.9982 35.4241C40.7687 35.1975 40.4944 34.8088 40.2248 34.557C40.1585 34.495 40.0603 34.7475 39.9503 34.6693C39.8347 34.5869 39.6869 34.4996 39.5382 34.3997C39.1659 34.1511 38.7953 33.8209 38.8761 33.3499C38.9711 32.825 39.4725 32.8439 39.4396 32.5599C39.4268 32.4359 38.8443 32.8688 38.7277 32.932C38.7189 32.9368 38.713 32.9395 38.7101 32.9398C38.3381 32.9472 38.4868 32.5627 38.255 32.4837C38.2069 32.4672 37.988 32.7335 37.9494 32.7171C37.8156 32.6613 37.835 32.4572 37.7326 32.387C37.6858 32.3565 37.5005 32.54 37.4816 32.4896C37.4487 32.4068 37.444 32.3082 37.4806 32.1722C37.4964 32.1135 37.5198 32.0474 37.5519 31.973C37.5635 31.9496 37.8485 31.7827 37.8009 31.7122C37.7234 31.5983 37.7906 31.3138 37.505 31.3695C37.4189 31.3874 36.9758 31.7851 37.2179 31.4388C37.2694 31.3658 37.8159 30.9039 37.2843 31.2386C37.1949 31.2932 36.4573 31.724 36.797 31.2982C36.8852 31.1872 37.2682 30.7565 37.1798 30.7698C37.1788 30.77 37.1771 30.7705 37.1759 30.7708C37.1687 30.7739 37.1281 30.8154 37.0792 30.8626C37.0522 30.8888 37.0221 30.9167 36.9943 30.9407C36.9505 30.9786 36.911 31.0073 36.8927 31.0042C36.7178 30.9693 36.6419 30.8382 36.4728 30.807C36.4273 30.7996 36.2256 31.0682 36.1662 31.0501C36.003 31.001 35.9405 30.8174 35.9171 30.6497C35.9097 30.5875 36.1225 30.416 36.1427 30.3909C36.3259 30.1496 36.2107 30.2269 36.088 30.3265C36.0125 30.3875 35.9341 30.4569 35.9181 30.4632C35.6763 30.5495 35.8233 30.2659 35.6915 30.2571C35.6562 30.2547 35.4623 30.5017 35.4396 30.5189C35.218 30.6862 35.621 30.2927 35.6359 30.223C35.6799 30.0279 35.5969 29.9892 35.4933 29.9564C35.4552 29.9449 35.2617 30.2554 35.2306 30.2425C35.1821 30.224 35.1327 30.198 35.0841 30.1634C34.8958 30.0271 34.6837 29.7846 34.59 29.513C34.5646 29.4419 34.7752 29.2533 34.8058 29.1956C35.0241 28.796 34.5285 29.174 34.466 29.1966C34.4269 29.2116 34.3957 29.2205 34.3703 29.2239C34.2124 29.244 34.287 29.0736 34.1789 29.0306C33.9066 28.9236 33.6643 28.7312 33.4513 28.5023C33.1816 28.213 32.9607 27.866 32.7746 27.5648C32.7637 27.5474 32.7528 27.5294 32.7423 27.512C32.5085 27.1243 32.3507 26.7372 32.173 26.3577C32.0358 26.0639 31.8867 25.7751 31.6798 25.4671C31.6482 25.4214 31.3517 25.6518 31.3205 25.6126C31.2612 25.5338 31.2082 25.4504 31.1583 25.3636C30.9484 25.0111 30.7628 24.4385 30.6046 24.0237C30.5158 24.0862 30.4115 24.1603 30.4044 24.1556C30.397 24.1506 30.3896 24.1425 30.38 24.1351C30.4478 24.1021 30.5391 24.0485 30.6027 24.0169C30.5888 23.9807 30.5771 23.9449 30.5636 23.9114L30.549 23.9027C30.5438 23.9015 30.5381 23.902 30.5324 23.9036C30.5247 23.9071 30.363 23.962 30.257 23.9993C30.182 23.8795 30.1193 23.6809 30.1437 23.3265C30.1472 23.2853 30.6355 22.7383 30.4933 22.7972C30.3501 22.9417 30.1861 23.1161 30.0353 23.2728C30.0131 23.2588 29.9907 23.2441 29.9689 23.2288C29.657 23.0107 29.3871 22.6626 29.0773 22.2884C28.9184 22.0964 28.7489 21.8972 28.5568 21.7015C28.5313 21.676 28.3131 22.0029 28.2619 21.9544C28.0809 21.7809 27.8651 21.6274 27.7091 21.3851C27.6135 21.2353 27.5372 21.0456 27.5197 20.804C27.5139 20.7409 28.039 20.3045 27.8683 20.2669C27.8369 20.2609 27.6283 20.1561 27.4738 20.1995C27.451 20.207 27.2315 20.4437 27.1749 20.389C26.9533 20.1688 26.7615 19.8682 26.631 19.5013C26.5725 19.3365 26.5257 19.1565 26.4982 18.971C26.484 18.8728 26.8302 18.8068 26.8253 18.7376C26.7916 18.2793 26.353 17.8299 26.5665 17.2581C26.7195 16.896 27.3219 16.9373 27.881 16.7445C27.9595 16.7194 27.9641 16.5705 28.3009 16.555C29.1456 16.5213 30.0719 16.5148 30.9718 16.4661C31.1656 16.4573 30.9571 16.4735 31.4259 16.4603C31.4579 16.4601 31.6123 16.4313 31.7697 16.4085C31.8238 16.4006 31.9354 16.3951 32.0509 16.387ZM58.1486 44.1009C58.0562 44.1232 57.803 45.1142 57.922 45.1243C57.9351 45.1251 57.9524 45.1142 57.9748 45.0892C57.9908 45.0728 58.1899 44.2006 58.1857 44.1751C58.1775 44.12 58.1642 44.0979 58.1486 44.1009ZM59.8683 44.2816C60.0116 44.1779 59.8345 44.2955 59.8996 44.2708C59.8454 44.3633 59.6923 44.6024 59.5539 44.7894C59.5683 44.7065 59.5842 44.6418 59.5998 44.6146C59.6556 44.5112 59.6969 44.5275 59.7306 44.513C59.757 44.5023 59.778 44.4728 59.8263 44.3695C59.8245 44.3579 59.8347 44.3294 59.8517 44.2923C59.8594 44.2866 59.8646 44.2821 59.8683 44.2816ZM56.7833 44.097C56.8927 43.5676 56.488 44.2332 56.3976 44.6409C56.3143 45.0506 56.7531 44.26 56.7833 44.097ZM60.3117 44.5286C60.3728 44.3692 61.674 43.7584 61.5998 44.2571C61.5796 44.3308 61.1359 44.1558 61.0236 44.2669C60.8135 44.4231 61.6976 44.4824 61.2277 44.6585C61.1423 44.6741 60.3087 44.5272 60.3097 44.5286H60.3117ZM59.466 43.8587C59.452 43.7389 59.4107 43.7518 59.381 43.8323C59.3539 43.9067 59.3368 44.0387 59.3546 44.1761C59.3579 44.2014 59.3623 44.2206 59.3673 44.2347C59.4079 44.3482 59.4937 44.1142 59.466 43.8587ZM53.1056 38.9417C53.354 38.6455 53.4921 38.6737 53.3146 39.1224C53.25 39.0557 53.1728 39.0093 53.1027 38.9486L53.1007 38.9466C53.1022 38.9448 53.1041 38.9435 53.1056 38.9417ZM48.8859 37.3812C48.5946 37.6275 48.6702 37.7442 48.9259 37.4417C48.936 37.4295 48.8979 37.3714 48.8859 37.3812ZM45.6613 34.6302C45.672 34.6159 45.6456 34.5715 45.5802 34.6478C45.3693 34.8944 45.4801 34.87 45.6613 34.6302ZM43.758 32.1546C43.3446 32.6244 43.5664 32.8553 43.88 32.2796C43.8962 32.2497 43.7809 32.1331 43.758 32.1546ZM30.3244 24.0872C30.344 24.1077 30.3639 24.1226 30.38 24.1351C30.3457 24.1518 30.3178 24.1633 30.3019 24.1634C30.1704 24.1545 30.1157 24.0636 30.1671 24.0316C30.1746 24.0267 30.2109 24.0155 30.257 23.9993C30.2792 24.0348 30.3019 24.0636 30.3244 24.0872ZM30.633 24.0052C30.6485 23.9985 30.66 23.9919 30.6681 23.9915C30.7956 23.9893 30.7921 23.9294 30.7306 23.9407C30.7211 23.942 30.682 23.971 30.633 24.0052ZM28.133 17.1683C27.749 17.2004 27.7731 17.4195 28.1427 17.2698C28.1572 17.264 28.1484 17.167 28.133 17.1683ZM32.6749 15.7679C32.8133 15.6978 33.0026 15.824 32.9455 16.0657C32.9182 16.1654 32.5304 16.2122 32.3703 16.2708C32.2115 16.3237 32.4974 16.3155 32.3605 16.3519C32.2905 16.3679 32.1684 16.3788 32.0509 16.387C32.0287 16.348 32.0197 16.3061 32.0568 16.2366C32.0723 16.2111 32.3522 16.0295 32.3761 16.0013C32.4291 15.9389 32.3786 15.9562 32.3908 15.9378C32.3938 15.9336 32.4005 15.9273 32.4132 15.9183C32.4487 15.8953 32.6306 15.7868 32.6749 15.7679Z" fill="#D81212"/>
<path d="M256.988 23.616C256.988 24.6827 257.5 25.5147 258.524 26.112C259.591 26.7093 260.935 27.2 262.556 27.584C264.22 27.968 265.969 28.3733 267.804 28.8C269.639 29.2267 271.367 29.7813 272.988 30.464C274.652 31.1467 275.996 32.1067 277.02 33.344C278.087 34.5387 278.62 36.16 278.62 38.208C278.62 39.9573 278.065 41.5787 276.956 43.072C275.889 44.5227 274.289 45.696 272.156 46.592C270.065 47.4453 267.484 47.872 264.412 47.872C262.791 47.872 261.127 47.68 259.42 47.296C257.756 46.912 256.22 46.3787 254.812 45.696C253.404 44.9707 252.273 44.1387 251.42 43.2C250.567 42.2187 250.14 41.1307 250.14 39.936C250.14 38.912 250.503 38.0373 251.228 37.312C251.953 36.5867 252.807 36.224 253.788 36.224C254.897 36.224 255.772 36.608 256.412 37.376C257.095 38.1013 257.436 38.9547 257.436 39.936C257.436 40.1067 257.415 40.2773 257.372 40.448C257.372 40.576 257.351 40.7253 257.308 40.896C257.265 40.9387 257.244 41.024 257.244 41.152C257.244 41.3653 257.372 41.536 257.628 41.664C258.567 42.048 259.612 42.4107 260.764 42.752C261.916 43.0933 263.132 43.264 264.412 43.264C266.076 43.264 267.612 43.072 269.02 42.688C270.471 42.2613 271.623 41.664 272.476 40.896C273.372 40.128 273.82 39.168 273.82 38.016C273.82 36.8213 273.287 35.904 272.22 35.264C271.196 34.5813 269.852 34.048 268.188 33.664C266.567 33.2373 264.839 32.832 263.004 32.448C261.169 32.0213 259.42 31.488 257.756 30.848C256.135 30.1653 254.791 29.2693 253.724 28.16C252.7 27.008 252.188 25.4933 252.188 23.616C252.188 21.9093 252.657 20.352 253.596 18.944C254.577 17.4933 256.028 16.3413 257.948 15.488C259.911 14.592 262.343 14.144 265.244 14.144C267.207 14.144 269.063 14.4 270.812 14.912C272.604 15.424 274.055 16.1707 275.164 17.152C276.316 18.1333 276.892 19.3067 276.892 20.672C276.892 20.8 276.892 20.9493 276.892 21.12C276.892 21.248 276.871 21.376 276.828 21.504C276.7 22.3573 276.295 23.0827 275.612 23.68C274.929 24.2347 274.14 24.512 273.244 24.512C272.177 24.512 271.303 24.1493 270.62 23.424C269.937 22.6987 269.596 21.8453 269.596 20.864C269.596 20.736 269.596 20.608 269.596 20.48C269.596 20.3093 269.617 20.16 269.66 20.032C269.703 19.9893 269.724 19.904 269.724 19.776C269.724 19.52 269.596 19.3707 269.34 19.328C268.273 18.8587 266.908 18.624 265.244 18.624C263.964 18.624 262.684 18.816 261.404 19.2C260.124 19.5413 259.057 20.0747 258.204 20.8C257.393 21.5253 256.988 22.464 256.988 23.616Z" fill="black"/>
<path d="M241.643 43.136C242.369 43.0507 242.987 43.2427 243.499 43.712C244.011 44.1813 244.267 44.7787 244.267 45.504C244.267 46.1867 244.011 46.7627 243.499 47.232C242.987 47.744 242.369 47.9573 241.643 47.872C241.046 47.7867 240.406 47.68 239.723 47.552C239.041 47.4667 238.379 47.4027 237.739 47.36C236.673 47.3173 235.755 46.9333 234.987 46.208C234.262 45.4827 233.899 44.5867 233.899 43.52V42.624C233.899 42.368 233.814 42.2187 233.643 42.176C233.515 42.0907 233.366 42.1547 233.195 42.368C231.915 43.9893 230.443 45.312 228.779 46.336C227.115 47.36 225.217 47.872 223.083 47.872C220.139 47.872 217.558 47.104 215.339 45.568C214.401 44.8853 213.462 43.8827 212.523 42.56C211.627 41.1947 211.179 39.4027 211.179 37.184V18.816C211.179 18.4747 211.03 18.304 210.731 18.304C210.219 18.304 209.707 18.3467 209.195 18.432C208.726 18.4747 208.257 18.496 207.787 18.496C207.19 18.496 206.678 18.2827 206.251 17.856C205.825 17.4293 205.611 16.896 205.611 16.256C205.611 15.616 205.846 15.0827 206.315 14.656C206.785 14.1867 207.339 13.9947 207.979 14.08C208.961 14.1653 209.729 14.2293 210.283 14.272C210.881 14.272 211.499 14.2933 212.139 14.336C213.206 14.336 214.102 14.72 214.827 15.488C215.595 16.2133 215.979 17.1093 215.979 18.176V37.184C215.979 38.592 216.278 39.7013 216.875 40.512C217.473 41.28 218.198 41.856 219.051 42.24C219.905 42.624 220.715 42.8587 221.483 42.944C222.251 43.0293 222.785 43.072 223.083 43.072C225.217 43.072 227.179 42.3893 228.971 41.024C230.806 39.616 232.385 37.8667 233.707 35.776C233.835 35.52 233.899 35.2853 233.899 35.072V18.816C233.899 18.4747 233.75 18.304 233.451 18.304C232.982 18.304 232.47 18.3467 231.915 18.432C231.403 18.4747 230.934 18.496 230.507 18.496C229.91 18.496 229.398 18.2827 228.971 17.856C228.545 17.4293 228.331 16.896 228.331 16.256C228.331 15.616 228.566 15.0827 229.035 14.656C229.505 14.1867 230.059 13.9947 230.699 14.08C231.681 14.1653 232.449 14.2293 233.003 14.272C233.601 14.272 234.219 14.2933 234.859 14.336C235.926 14.336 236.822 14.72 237.547 15.488C238.315 16.2133 238.699 17.1093 238.699 18.176V42.944C238.699 43.2853 238.87 43.456 239.211 43.456C239.638 43.456 240.043 43.4133 240.427 43.328C240.811 43.2427 241.217 43.1787 241.643 43.136Z" fill="black"/>
<path d="M198.453 36.864C199.178 36.864 199.797 37.12 200.309 37.632C200.821 38.144 201.034 38.7627 200.949 39.488C200.309 45.12 197.514 47.936 192.565 47.936C190.944 47.936 189.514 47.552 188.277 46.784C187.082 46.016 186.144 45.0133 185.461 43.776C184.778 42.496 184.437 41.1093 184.437 39.616V19.52C184.437 19.136 184.245 18.944 183.861 18.944H180.021C179.424 18.944 178.89 18.7307 178.421 18.304C177.994 17.8347 177.781 17.3013 177.781 16.704C177.781 16.1067 177.994 15.5947 178.421 15.168C178.89 14.7413 179.424 14.528 180.021 14.528H183.861C184.245 14.528 184.437 14.336 184.437 13.952V3.00799C184.437 2.32532 184.672 1.74932 185.141 1.27999C185.61 0.810656 186.186 0.575989 186.869 0.575989C187.509 0.575989 188.064 0.810656 188.533 1.27999C189.002 1.74932 189.237 2.32532 189.237 3.00799V13.952C189.237 14.336 189.429 14.528 189.813 14.528H197.557C198.154 14.528 198.666 14.7413 199.093 15.168C199.52 15.5947 199.733 16.1067 199.733 16.704C199.733 17.3013 199.52 17.8347 199.093 18.304C198.666 18.7307 198.154 18.944 197.557 18.944H189.813C189.429 18.944 189.237 19.136 189.237 19.52V39.616C189.237 39.744 189.28 40.1067 189.365 40.704C189.493 41.2587 189.792 41.8133 190.261 42.368C190.73 42.88 191.498 43.136 192.565 43.136C193.802 43.136 194.677 42.7947 195.189 42.112C195.701 41.4293 196.042 40.384 196.213 38.976C196.298 38.3787 196.554 37.888 196.981 37.504C197.408 37.0773 197.898 36.864 198.453 36.864Z" fill="black"/>
<path d="M172.755 38.848C173.267 39.4027 173.523 40.0427 173.523 40.768C173.523 41.4507 173.31 42.0053 172.883 42.432C171.305 44.1387 169.427 45.4827 167.251 46.464C165.075 47.4027 162.835 47.872 160.531 47.872C157.801 47.872 155.369 47.4027 153.235 46.464C151.102 45.4827 149.289 44.1813 147.795 42.56C146.302 40.896 145.171 39.0613 144.403 37.056C143.635 35.0507 143.251 33.024 143.251 30.976C143.251 27.8187 143.955 24.96 145.363 22.4C146.814 19.84 148.777 17.8133 151.251 16.32C153.726 14.784 156.542 14.016 159.699 14.016C164.691 14.016 168.595 15.7227 171.411 19.136C172.009 19.8187 172.521 20.608 172.947 21.504C173.417 22.3573 173.651 23.2107 173.651 24.064C173.651 24.8747 173.481 25.5573 173.139 26.112C172.841 26.6667 172.414 27.1147 171.859 27.456C171.305 27.7973 170.665 27.968 169.939 27.968C168.915 27.968 168.041 27.6053 167.315 26.88C166.633 26.112 166.291 25.216 166.291 24.192C166.291 23.808 166.355 23.4453 166.483 23.104C166.654 22.72 166.825 22.4 166.995 22.144C167.209 21.8453 167.209 21.568 166.995 21.312C166.227 20.3307 165.203 19.6053 163.923 19.136C162.643 18.6667 161.235 18.432 159.699 18.432C157.395 18.432 155.369 18.9867 153.619 20.096C151.87 21.2053 150.505 22.6987 149.523 24.576C148.542 26.4533 148.051 28.5867 148.051 30.976C148.051 33.1947 148.563 35.2427 149.587 37.12C150.654 38.9547 152.105 40.448 153.939 41.6C155.774 42.7093 157.907 43.264 160.339 43.264C162.217 43.264 163.945 42.8587 165.523 42.048C167.102 41.2373 168.489 40.192 169.683 38.912C170.153 38.4427 170.686 38.208 171.283 38.208C171.881 38.208 172.371 38.4213 172.755 38.848Z" fill="black"/>
<path d="M136.005 43.008C136.645 43.008 137.179 43.264 137.605 43.776C138.075 44.2453 138.309 44.8 138.309 45.44C138.309 46.208 138.032 46.8267 137.477 47.296C136.923 47.808 136.283 48 135.557 47.872C135.003 47.744 134.405 47.6373 133.765 47.552C133.125 47.4667 132.485 47.4027 131.845 47.36C130.992 47.36 130.224 47.104 129.541 46.592C128.859 46.08 128.389 45.4187 128.133 44.608C128.005 44.224 127.792 44.16 127.493 44.416C126.043 45.5253 124.464 46.3787 122.757 46.976C121.051 47.5733 119.024 47.872 116.677 47.872C113.861 47.872 111.515 47.0613 109.637 45.44C107.76 43.776 106.821 41.6213 106.821 38.976C106.821 35.9467 107.888 33.472 110.021 31.552C112.155 29.632 114.971 28.672 118.469 28.672C119.792 28.672 121.2 28.8213 122.693 29.12C124.187 29.4187 125.723 29.888 127.301 30.528C127.344 30.528 127.387 30.5493 127.429 30.592C127.472 30.592 127.515 30.592 127.557 30.592C127.856 30.592 128.005 30.4213 128.005 30.08V27.52C128.005 24.4907 127.195 22.2293 125.573 20.736C123.995 19.2427 122.139 18.496 120.005 18.496C118.597 18.496 117.147 18.816 115.653 19.456C115.355 19.6267 115.248 19.8827 115.333 20.224C115.461 20.608 115.525 20.9707 115.525 21.312C115.525 22.2507 115.184 23.104 114.501 23.872C113.861 24.64 112.987 25.024 111.877 25.024C110.725 25.024 109.808 24.64 109.125 23.872C108.485 23.0613 108.165 22.144 108.165 21.12C108.165 20.0533 108.549 19.072 109.317 18.176C110.469 16.8533 111.899 15.8293 113.605 15.104C115.355 14.3787 117.211 14.016 119.173 14.016C122.501 14.016 125.147 14.6347 127.109 15.872C129.115 17.1093 130.544 18.752 131.397 20.8C132.293 22.848 132.741 25.088 132.741 27.52V42.944C132.741 43.2853 132.912 43.456 133.253 43.456C133.723 43.456 134.192 43.392 134.661 43.264C135.131 43.0933 135.579 43.008 136.005 43.008ZM116.677 43.264C119.152 43.1787 121.221 42.7733 122.885 42.048C124.549 41.3227 126.171 40.1493 127.749 38.528C127.92 38.3147 128.005 38.08 128.005 37.824V36.032C128.005 35.7333 127.877 35.52 127.621 35.392C126.725 34.88 125.595 34.368 124.229 33.856C122.864 33.344 121.029 33.088 118.725 33.088C116.08 33.088 114.181 33.6853 113.029 34.88C111.92 36.0747 111.365 37.44 111.365 38.976C111.365 40 111.643 40.832 112.197 41.472C112.752 42.0693 113.435 42.5173 114.245 42.816C115.099 43.1147 115.909 43.264 116.677 43.264Z" fill="black"/>
<path d="M99.6045 34.56C100.287 35.1573 100.628 35.904 100.628 36.8C100.628 37.3973 100.479 37.9093 100.18 38.336C98.0898 41.2373 95.4445 43.5627 92.2445 45.312C89.0445 47.0613 85.5671 47.936 81.8125 47.936C78.6551 47.936 75.6898 47.3173 72.9165 46.08C70.1431 44.8 67.7111 43.072 65.6205 40.896C63.5298 38.6773 61.8871 36.1173 60.6925 33.216C59.4978 30.3147 58.9005 27.2213 58.9005 23.936C58.9005 20.608 59.4978 17.5147 60.6925 14.656C61.8871 11.7547 63.5298 9.216 65.6205 7.04C67.7111 4.82133 70.1431 3.09333 72.9165 1.856C75.6898 0.618666 78.6551 0 81.8125 0C85.0125 0 87.8285 0.512 90.2605 1.536C92.7351 2.56 94.9325 3.98933 96.8525 5.824C97.7058 6.63466 98.4738 7.53066 99.1565 8.512C99.8391 9.49333 100.18 10.56 100.18 11.712C100.18 12.7787 99.7965 13.7173 99.0285 14.528C98.2605 15.3387 97.3218 15.744 96.2125 15.744C95.0605 15.744 94.1218 15.3387 93.3965 14.528C92.6711 13.7173 92.3085 12.8 92.3085 11.776C92.3085 10.9653 92.5218 10.2613 92.9485 9.664C93.1618 9.32267 93.1405 9.04533 92.8845 8.832C91.5191 7.33867 89.8551 6.29333 87.8925 5.696C85.9725 5.056 83.9458 4.736 81.8125 4.736C78.3565 4.736 75.2845 5.58933 72.5965 7.296C69.9085 9.00267 67.7751 11.3067 66.1965 14.208C64.6605 17.0667 63.8925 20.3093 63.8925 23.936C63.8925 27.5627 64.6818 30.8053 66.2605 33.664C67.8391 36.5227 69.9725 38.784 72.6605 40.448C75.3911 42.0693 78.4418 42.88 81.8125 42.88C84.8845 42.88 87.7005 42.1973 90.2605 40.832C92.8205 39.424 94.8898 37.5253 96.4685 35.136C96.9378 34.4533 97.5565 34.112 98.3245 34.112C98.8365 34.112 99.2631 34.2613 99.6045 34.56Z" fill="black"/>
</svg>
