<svg width="24" height="24" viewBox="0 0 24 24" fill="none" xmlns="http://www.w3.org/2000/svg">
<path fill-rule="evenodd" clip-rule="evenodd" d="M12 2.9999C11.2043 2.9999 10.4413 3.31596 9.87868 3.87854C9.31607 4.44112 9 5.20415 9 5.99976H15C15 5.20415 14.6839 4.44112 14.1213 3.87854C13.5587 3.31596 12.7956 2.9999 12 2.9999ZM17 5.99976C17 4.67374 16.4732 3.40203 15.5355 2.4644C14.5978 1.52676 13.3261 1 12 1C10.6739 1 9.40214 1.52676 8.46446 2.4644C7.52678 3.40203 7 4.67374 7 5.99976H5.105C4.82558 5.99977 4.54926 6.05833 4.29386 6.17166C4.03845 6.28498 3.80963 6.45057 3.62214 6.65774C3.43466 6.86491 3.29266 7.10907 3.20531 7.37447C3.11796 7.63987 3.08719 7.92063 3.115 8.19865L3.99 16.9502L3.259 20.607C3.20102 20.8971 3.20811 21.1964 3.27973 21.4833C3.35136 21.7703 3.48575 22.0378 3.67321 22.2666C3.86068 22.4953 4.09656 22.6797 4.36386 22.8063C4.63115 22.933 4.92321 22.9988 5.219 22.9989H18.78C19.0759 22.9989 19.368 22.9332 19.6355 22.8067C19.9029 22.6801 20.1389 22.4958 20.3265 22.267C20.514 22.0382 20.6485 21.7706 20.7202 21.4836C20.7919 21.1965 20.799 20.8972 20.741 20.607L20.01 16.9502L20.885 8.19865C20.9128 7.92063 20.882 7.63987 20.7947 7.37447C20.7073 7.10907 20.5653 6.86491 20.3778 6.65774C20.1904 6.45057 19.9615 6.28498 19.7061 6.17166C19.4507 6.05833 19.1744 5.99977 18.895 5.99976H17ZM8 7.99966H5.105L5.995 16.8992L6.01 17.0492L5.98 17.1952L5.22 20.999H18.78L18.02 17.1952L17.99 17.0482L18.005 16.9002L18.895 7.99966L19.89 8.09966L18.895 7.99966H8ZM7 16.9992C7 16.734 7.10535 16.4797 7.29289 16.2922C7.48043 16.1046 7.73478 15.9993 8 15.9993H16C16.2652 15.9993 16.5196 16.1046 16.7071 16.2922C16.8946 16.4797 17 16.734 17 16.9992C17 17.2644 16.8946 17.5188 16.7071 17.7063C16.5196 17.8938 16.2652 17.9992 16 17.9992H8C7.73478 17.9992 7.48043 17.8938 7.29289 17.7063C7.10535 17.5188 7 17.2644 7 16.9992Z" fill="#b5318d"/>
</svg>
