<svg width="25" height="24" viewBox="0 0 25 24" fill="none" xmlns="http://www.w3.org/2000/svg">
<path d="M18.6689 3H6.66895C5.8733 3 5.11023 3.31607 4.54763 3.87868C3.98502 4.44129 3.66895 5.20435 3.66895 6V18C3.66895 18.7956 3.98502 19.5587 4.54763 20.1213C5.11023 20.6839 5.8733 21 6.66895 21H18.6689C19.4646 21 20.2277 20.6839 20.7903 20.1213C21.3529 19.5587 21.6689 18.7956 21.6689 18V6C21.6689 5.20435 21.3529 4.44129 20.7903 3.87868C20.2277 3.31607 19.4646 3 18.6689 3ZM19.6689 18C19.6689 18.2652 19.5636 18.5196 19.3761 18.7071C19.1885 18.8946 18.9342 19 18.6689 19H6.66895C6.40373 19 6.14938 18.8946 5.96184 18.7071C5.7743 18.5196 5.66895 18.2652 5.66895 18V6C5.66895 5.73478 5.7743 5.48043 5.96184 5.29289C6.14938 5.10536 6.40373 5 6.66895 5H18.6689C18.9342 5 19.1885 5.10536 19.3761 5.29289C19.5636 5.48043 19.6689 5.73478 19.6689 6V18ZM17.6689 8C17.6689 9.32608 17.1422 10.5979 16.2045 11.5355C15.2668 12.4732 13.995 13 12.6689 13C11.3429 13 10.0711 12.4732 9.13341 11.5355C8.19573 10.5979 7.66895 9.32608 7.66895 8C7.66895 7.73478 7.7743 7.48043 7.96184 7.29289C8.14937 7.10536 8.40373 7 8.66895 7C8.93416 7 9.18852 7.10536 9.37605 7.29289C9.56359 7.48043 9.66895 7.73478 9.66895 8C9.66895 8.79565 9.98502 9.55871 10.5476 10.1213C11.1102 10.6839 11.8733 11 12.6689 11C13.4646 11 14.2277 10.6839 14.7903 10.1213C15.3529 9.55871 15.6689 8.79565 15.6689 8C15.6689 7.73478 15.7743 7.48043 15.9618 7.29289C16.1494 7.10536 16.4037 7 16.6689 7C16.9342 7 17.1885 7.10536 17.3761 7.29289C17.5636 7.48043 17.6689 7.73478 17.6689 8Z" fill="#222221"/>
</svg>
