<svg width="24" height="24" viewBox="0 0 24 24" fill="none" xmlns="http://www.w3.org/2000/svg">
<path fill-rule="evenodd" clip-rule="evenodd" d="M12 3.00235C12.2652 3.00241 12.5195 3.1078 12.707 3.29535L19.707 10.2954C19.8891 10.484 19.9899 10.7366 19.9877 10.9988C19.9854 11.2609 19.8802 11.5118 19.6948 11.6972C19.5094 11.8826 19.2586 11.9877 18.9964 11.99C18.7342 11.9923 18.4816 11.8915 18.293 11.7093L13 6.41635V20.0023C13 20.2676 12.8946 20.5219 12.7071 20.7095C12.5196 20.897 12.2652 21.0023 12 21.0023C11.7348 21.0023 11.4804 20.897 11.2929 20.7095C11.1053 20.5219 11 20.2676 11 20.0023V6.41635L5.70698 11.7093C5.51838 11.8915 5.26578 11.9923 5.00358 11.99C4.74138 11.9877 4.49057 11.8826 4.30516 11.6972C4.11975 11.5118 4.01458 11.2609 4.01231 10.9988C4.01003 10.7366 4.11082 10.484 4.29298 10.2954L11.293 3.29535C11.4805 3.1078 11.7348 3.00241 12 3.00235Z" fill="#105c2d"/>
</svg>
